<?xml version="1.0" encoding="utf-8"?>
<svg id="master-artboard" viewBox="0 0 192.10513305664062 238.18177795410156" version="1.1" xmlns="http://www.w3.org/2000/svg" x="0px" y="0px" style="enable-background:new 0 0 1400 980;" width="192.10513305664062px" height="238.18177795410156px"><rect id="ee-background" x="0" y="0" width="192.10513305664062" height="238.18177795410156" style="fill: white; fill-opacity: 0; pointer-events: none;"/>

<g transform="matrix(1, 0, 0, 1, -488.03826904296875, -655.1913452148438)">
			<path class="st11" d="M585,662.3c48.8,0,88.3,39.5,88.3,88.3c0,48.7-39.5,88.2-88.3,88.2c-48.7,0-88.2-39.5-88.2-88.2&#10;&#9;&#9;&#9;&#9;C496.8,701.7,536.2,662.3,585,662.3L585,662.3z" style="fill-rule: evenodd; clip-rule: evenodd; fill: rgb(86, 185, 71);"/>
			<path class="st12" d="M585,662.3c48.8,0,88.3,39.5,88.3,88.3c0,48.7-39.5,88.2-88.3,88.2V662.3z" style="fill-rule: evenodd; clip-rule: evenodd; fill: rgb(69, 159, 70);"/>
			<path class="st13" d="M602.3,724.2c2.3,1.1,4.6,2.4,6.6,4l0,0l5.9-5.9l0,0c1.3-1.3,3.6-1.3,4.9,0l0,0l5.9,5.9&#10;&#9;&#9;&#9;&#9;c1.3,1.3,1.3,3.6,0,4.9l0,0c-1.3,1.3-3.4,1.3-4.8,0l-3.6-3.6l-3.6,3.4c3.9,4.8,6.6,11,7.5,18.6l1-1l0,0c1.3-1.3,3.4-1.3,4.8,0&#10;&#9;&#9;&#9;&#9;l0,0l6,5.9c1.3,1.3,1.3,3.4,0,4.8l0,0c-1.3,1.3-3.6,1.3-4.8,0l-3.6-3.4l-3.2,3.1c-0.3,6.1-1.7,11.9-3.8,17l4.2,0.1l0,0&#10;&#9;&#9;&#9;&#9;c1.9,0,3.4,1.6,3.4,3.3l0,0l-0.1,8.5c0,1.9-1.6,3.3-3.4,3.3l0,0c-1.8,0-3.3-1.6-3.3-3.3v-5l-4.1-0.1c-6.7,11-17.2,18.1-29.2,18.1&#10;&#9;&#9;&#9;&#9;c-11.9,0-22.5-7.1-29.1-18.1l-4.1,0.1v5c0,1.8-1.6,3.3-3.3,3.3l0,0c-1.9,0-3.4-1.4-3.4-3.3l-0.1-8.5l0,0c0-1.8,1.6-3.3,3.4-3.3&#10;&#9;&#9;&#9;&#9;l0,0l4.2-0.1c-2.1-5.1-3.4-10.9-3.8-17l-3.2-3.1l-3.6,3.4c-1.2,1.3-3.4,1.3-4.8,0l0,0c-1.3-1.3-1.3-3.4,0-4.8l6-5.9l0,0&#10;&#9;&#9;&#9;&#9;c1.3-1.3,3.4-1.3,4.8,0l0,0l1,1c0.9-7.6,3.6-13.8,7.5-18.6l-3.6-3.4l-3.6,3.6c-1.3,1.3-3.4,1.3-4.8,0l0,0c-1.3-1.3-1.3-3.6,0-4.9&#10;&#9;&#9;&#9;&#9;l5.9-5.9l0,0c1.3-1.3,3.6-1.3,4.8,0l0,0l6,5.9l0,0c2-1.6,4.2-2.9,6.6-4c-0.1-0.6-0.2-1.2-0.2-1.9c0-5.9,3-12.8,8.6-16.3l-2.9-2.9&#10;&#9;&#9;&#9;&#9;l-2.1,2.1c-0.8,0.8-2,0.8-2.8,0l0,0c-0.9-0.8-0.9-2.1,0-2.9l3.4-3.4l0,0c0.8-0.8,2.1-0.8,2.9,0l0,0l5.3,5.3&#10;&#9;&#9;&#9;&#9;c1.6-0.6,3.2-0.8,5-0.8c1.9,0,3.6,0.2,5.1,0.8l5.3-5.3l0,0c0.8-0.8,2.1-0.8,2.9,0l0,0l3.4,3.4c0.9,0.8,0.9,2.1,0,2.9l0,0&#10;&#9;&#9;&#9;&#9;c-0.8,0.8-2,0.8-2.8,0l-2.1-2.1L594,706c5.6,3.6,8.6,10.5,8.6,16.3C602.5,723,602.4,723.7,602.3,724.2L602.3,724.2z" style="fill-rule: evenodd; clip-rule: evenodd; fill: rgb(232, 232, 95);"/>
			<path class="st14" d="M602.3,724.2c2.3,1.1,4.6,2.4,6.6,4l0,0l5.9-5.9l0,0c1.3-1.3,3.6-1.3,4.9,0l0,0l5.9,5.9&#10;&#9;&#9;&#9;&#9;c1.3,1.3,1.3,3.6,0,4.9l0,0c-1.3,1.3-3.4,1.3-4.8,0l-3.6-3.6l-3.6,3.4c3.9,4.8,6.6,11,7.5,18.6l1-1l0,0c1.3-1.3,3.4-1.3,4.8,0&#10;&#9;&#9;&#9;&#9;l0,0l6,5.9c1.3,1.3,1.3,3.4,0,4.8l0,0c-1.3,1.3-3.6,1.3-4.8,0l-3.6-3.4l-3.2,3.1c-0.3,6.1-1.7,11.9-3.8,17l4.2,0.1l0,0&#10;&#9;&#9;&#9;&#9;c1.9,0,3.4,1.6,3.4,3.3l0,0l-0.1,8.5c0,1.9-1.6,3.3-3.4,3.3l0,0c-1.8,0-3.3-1.6-3.3-3.3v-5l-4.1-0.1c-6.7,11-17.2,18.1-29.2,18.1&#10;&#9;&#9;&#9;&#9;v-99.4c1.9,0,3.6,0.2,5.1,0.8l5.3-5.3l0,0c0.8-0.8,2.1-0.8,2.9,0l0,0l3.4,3.4c0.9,0.8,0.9,2.1,0,2.9l0,0c-0.8,0.8-2,0.8-2.8,0&#10;&#9;&#9;&#9;&#9;l-2.1-2.1L594,706c5.6,3.6,8.6,10.5,8.6,16.3C602.5,723,602.4,723.7,602.3,724.2L602.3,724.2z" style="fill-rule: evenodd; clip-rule: evenodd; fill: rgb(191, 211, 48);"/>
		</g><path class="st5" d="M557.2,868.6h7.9c1.6,0,2.7,0.1,3.4,0.2c0.8,0.1,1.4,0.3,2.1,0.8c0.6,0.4,1.1,1,1.4,1.7&#10;&#9;&#9;&#9;c0.4,0.7,0.7,1.4,0.7,2.2c0,1-0.2,1.8-0.8,2.6c-0.4,0.8-1.1,1.3-2,1.8c1.2,0.3,2.1,0.9,2.8,1.8c0.7,0.8,0.9,1.8,0.9,2.9&#10;&#9;&#9;&#9;c0,1-0.1,1.8-0.6,2.7c-0.4,0.9-1,1.6-1.7,2c-0.8,0.6-1.7,0.8-2.7,1c-0.7,0-2.3,0.1-4.8,0.1h-6.8V868.6z M561.2,871.8v4.6h2.6&#10;&#9;&#9;&#9;c1.6,0,2.6,0,2.9,0c0.7-0.1,1.2-0.3,1.7-0.8c0.3-0.3,0.6-0.9,0.6-1.4c0-0.7-0.1-1.1-0.4-1.6c-0.4-0.3-0.9-0.6-1.6-0.7&#10;&#9;&#9;&#9;c-0.3,0-1.6-0.1-3.3-0.1H561.2z M561.2,879.7v5.2h3.7c1.4,0,2.3,0,2.8-0.1c0.6-0.1,1-0.3,1.4-0.8c0.3-0.4,0.6-1,0.6-1.7&#10;&#9;&#9;&#9;c0-0.7-0.2-1.1-0.4-1.6c-0.3-0.3-0.8-0.7-1.2-0.9c-0.6-0.1-1.8-0.2-3.6-0.2H561.2z M576.9,868.6h4v10.7c0,1.7,0,2.8,0.1,3.2&#10;&#9;&#9;&#9;c0.2,0.8,0.7,1.4,1.2,2c0.7,0.4,1.6,0.7,2.7,0.7c1.1,0,2-0.2,2.6-0.7c0.6-0.4,0.9-1,1-1.7c0.1-0.7,0.2-1.8,0.2-3.3v-10.9h3.9v10.3&#10;&#9;&#9;&#9;c0,2.3-0.1,4-0.3,5c-0.2,1-0.6,1.8-1.1,2.4c-0.6,0.7-1.3,1.2-2.3,1.6c-1,0.4-2.2,0.7-3.8,0.7c-1.9,0-3.3-0.2-4.2-0.7&#10;&#9;&#9;&#9;c-1-0.4-1.8-1-2.3-1.7c-0.6-0.8-1-1.4-1.1-2.2c-0.2-1.1-0.4-2.8-0.4-5V868.6z M606,881v-3.3h8.6v7.8c-0.8,0.9-2,1.6-3.6,2.1&#10;&#9;&#9;&#9;c-1.7,0.7-3.2,1-4.9,1c-2,0-3.8-0.4-5.3-1.3c-1.6-0.9-2.7-2.1-3.4-3.7c-0.8-1.7-1.1-3.3-1.1-5.2c0-2.1,0.4-3.9,1.2-5.4&#10;&#9;&#9;&#9;c0.9-1.7,2.1-2.9,3.8-3.7c1.3-0.7,2.9-1,4.8-1c2.3,0,4.3,0.6,5.7,1.6c1.3,1,2.2,2.4,2.7,4.2l-4,0.8c-0.2-1-0.8-1.8-1.6-2.3&#10;&#9;&#9;&#9;s-1.7-0.9-2.8-0.9c-1.8,0-3.1,0.6-4.2,1.7c-1,1.1-1.4,2.8-1.4,4.9c0,2.3,0.4,4.1,1.6,5.3c1,1.1,2.3,1.7,4,1.7&#10;&#9;&#9;&#9;c0.9,0,1.7-0.1,2.6-0.4c0.8-0.3,1.6-0.8,2.1-1.2V881H606z" style="fill: rgb(65, 64, 66);" transform="matrix(1, 0, 0, 1, -488.03826904296875, -655.1913452148438)"/>
</svg>