<?xml version="1.0" encoding="utf-8"?>
<svg id="master-artboard" viewBox="0 0 192.10513305664062 238.18177795410156" version="1.1" xmlns="http://www.w3.org/2000/svg" x="0px" y="0px" style="enable-background:new 0 0 1400 980;" width="192.10513305664062px" height="238.18177795410156px"><rect id="ee-background" x="0" y="0" width="192.10513305664062" height="238.18177795410156" style="fill: white; fill-opacity: 0; pointer-events: none;"/>

<g transform="matrix(1, 0, 0, 1, -912.631591796875, -657.6314392089844)">
			<path class="st28" d="M1009.2,662.3c48.7,0,88.2,39.5,88.2,88.3c0,48.7-39.5,88.2-88.2,88.2c-48.8,0-88.3-39.5-88.3-88.2&#10;&#9;&#9;&#9;&#9;C920.9,701.7,960.4,662.3,1009.2,662.3L1009.2,662.3z" style="fill-rule: evenodd; clip-rule: evenodd; fill: rgb(192, 57, 149);"/>
			<path class="st29" d="M1009.2,662.3c48.7,0,88.2,39.5,88.2,88.3c0,48.7-39.5,88.2-88.2,88.2V662.3z" style="fill-rule: evenodd; clip-rule: evenodd; fill: rgb(177, 31, 131);"/>
			<path class="st10" d="M1009.2,682.4c10.8,0,21.1,2.6,30.2,7.1c-3.9-1.1-7.9-1.7-12.1-1.7c-25.6,0-46.3,20.8-46.3,46.4&#10;&#9;&#9;&#9;&#9;c0,25.6,20.7,46.3,46.3,46.3c25.6,0,46.4-20.7,46.4-46.3c0-2.4-0.2-4.9-0.6-7.2c2.7,7.3,4.1,15.2,4.1,23.6&#10;&#9;&#9;&#9;&#9;c0,37.6-30.5,68.1-68.1,68.1c-37.7,0-68.2-30.5-68.2-68.1C941,712.9,971.5,682.4,1009.2,682.4L1009.2,682.4z" style="fill-rule: evenodd; clip-rule: evenodd; fill: rgb(243, 184, 26);"/>
			<path class="st6" d="M1009.2,682.4c10.8,0,21.1,2.6,30.2,7.1c-3.9-1.1-7.9-1.7-12.1-1.7c-6.5,0-12.6,1.3-18.1,3.8V682.4z&#10;&#9;&#9;&#9;&#9; M1009.2,776.8c5.6,2.3,11.7,3.7,18.1,3.7c25.6,0,46.4-20.7,46.4-46.3c0-2.4-0.2-4.9-0.6-7.2c2.7,7.3,4.1,15.2,4.1,23.6&#10;&#9;&#9;&#9;&#9;c0,37.6-30.5,68.1-68.1,68.1V776.8z" style="fill-rule: evenodd; clip-rule: evenodd; fill: rgb(244, 139, 32);"/>
		</g><path class="st5" d="M972.2,868.6h7.2c1.7,0,2.9,0.1,3.8,0.3c1.1,0.3,2.1,1,2.9,1.9c0.9,0.8,1.4,1.9,1.9,3.1&#10;&#9;&#9;&#9;c0.4,1.3,0.7,2.8,0.7,4.7c0,1.7-0.2,3-0.6,4.2c-0.6,1.4-1.2,2.6-2.1,3.4c-0.7,0.7-1.7,1.2-2.8,1.6c-0.9,0.2-2.1,0.4-3.6,0.4h-7.5&#10;&#9;&#9;&#9;V868.6z M976.2,871.9v13h2.9c1.1,0,1.9-0.1,2.4-0.2c0.7-0.1,1.1-0.4,1.6-0.8c0.4-0.4,0.8-1,1.1-1.9c0.2-0.9,0.3-2.1,0.3-3.7&#10;&#9;&#9;&#9;c0-1.4-0.1-2.7-0.3-3.4c-0.3-0.8-0.7-1.4-1.2-1.9c-0.4-0.4-1-0.8-1.8-0.9c-0.6-0.2-1.7-0.2-3.2-0.2H976.2z M1009.8,888.2h-4.3&#10;&#9;&#9;&#9;l-1.8-4.4h-7.8l-1.7,4.4H990l7.7-19.7h4.2L1009.8,888.2z M1002.4,880.5l-2.7-7.3l-2.7,7.3H1002.4z M1011.9,888.2v-19.7h8.3&#10;&#9;&#9;&#9;c2.1,0,3.7,0.2,4.6,0.6c1,0.3,1.7,1,2.3,1.9c0.6,0.9,0.8,1.9,0.8,3.1c0,1.4-0.4,2.7-1.2,3.6c-0.9,1-2.2,1.6-3.9,1.9&#10;&#9;&#9;&#9;c0.8,0.4,1.6,1,2.1,1.7c0.6,0.6,1.3,1.6,2.2,3.1l2.4,3.9h-4.8l-2.9-4.3c-1-1.6-1.7-2.4-2.1-2.9c-0.3-0.3-0.8-0.7-1.1-0.8&#10;&#9;&#9;&#9;c-0.4-0.1-1.1-0.2-2-0.2h-0.9v8.2H1011.9z M1015.8,876.9h3c1.9,0,3.1-0.1,3.6-0.2c0.4-0.2,0.9-0.4,1.1-0.9&#10;&#9;&#9;&#9;c0.2-0.3,0.4-0.9,0.4-1.4c0-0.7-0.2-1.2-0.6-1.7c-0.3-0.3-0.9-0.7-1.6-0.8c-0.3,0-1.2,0-2.9,0h-3.1V876.9z M1031.7,888.2v-19.7h4&#10;&#9;&#9;&#9;v8.7l8-8.7h5.3l-7.3,7.7l7.8,12h-5.1l-5.4-9.2l-3.2,3.2v6H1031.7z" style="fill: rgb(65, 64, 66);" transform="matrix(1, 0, 0, 1, -912.631591796875, -657.6314392089844)"/>
</svg>