<?xml version="1.0" encoding="utf-8"?>
<svg id="master-artboard" viewBox="0 0 192.10513305664062 238.18177795410156" version="1.1" xmlns="http://www.w3.org/2000/svg" x="0px" y="0px" style="enable-background:new 0 0 1400 980;" width="192.10513305664062px" height="238.18177795410156px"><rect id="ee-background" x="0" y="0" width="192.10513305664062" height="238.18177795410156" style="fill: white; fill-opacity: 0; pointer-events: none;"/>

<g transform="matrix(1, 0, 0, 1, -486.8181686401367, -373.3492431640625)">
			<path class="st11" d="M585,376.9c48.8,0,88.3,39.5,88.3,88.2s-39.5,88.2-88.3,88.2c-48.7,0-88.2-39.5-88.2-88.2&#10;&#9;&#9;&#9;&#9;S536.2,376.9,585,376.9L585,376.9z" style="fill-rule: evenodd; clip-rule: evenodd; fill: rgb(86, 185, 71);"/>
			<path class="st12" d="M585,376.9c48.8,0,88.3,39.5,88.3,88.2s-39.5,88.2-88.3,88.2V376.9z" style="fill-rule: evenodd; clip-rule: evenodd; fill: rgb(69, 159, 70);"/>
			<path class="st13" d="M564.7,406.4c45.2-26.2,100.8,12.5,88,68.8c-13.7,59.6-72.1,67.1-118,46.9c-10.5-4.6-10-13.3-1.4-20&#10;&#9;&#9;&#9;&#9;c45-34.7,49.4-55.2,52.3-55.5c4-0.4-1.2,32.1,7.9,35c9.9,3,27.1-15.5,26.7-38.9c-0.3-23.5-24.4-37.3-55.3-32&#10;&#9;&#9;&#9;&#9;C557.2,411.9,557.7,410.4,564.7,406.4L564.7,406.4z M581.6,489.7c-5.8,5.1-5.2,4.9-16.3,15.1c-6.2,5.7-8.1,6.9-6.9,7.2&#10;&#9;&#9;&#9;&#9;c2.8,0.9,26.4,0.2,21.8-16.8c-0.2-0.8,1.7-3.8,2.3-5.3C583.1,488.3,582.3,489,581.6,489.7L581.6,489.7z" style="fill-rule: evenodd; clip-rule: evenodd; fill: rgb(232, 232, 95);"/>
			<path class="st14" d="M585,398.9c39.8-7,78.6,28.1,67.7,76.3c-8.9,38.7-36.7,55.4-67.7,56.8v-85.2c0.2-0.1,0.4-0.2,0.6-0.2&#10;&#9;&#9;&#9;&#9;c4-0.4-1.2,32.1,7.9,35c9.9,3,27.1-15.5,26.7-38.9c-0.3-18-14.5-30.4-35.1-32.7V398.9z" style="fill-rule: evenodd; clip-rule: evenodd; fill: rgb(191, 211, 48);"/>
		</g><path class="st5" d="M526.7,583.1h7.2c1.7,0,2.9,0.2,3.8,0.4c1.1,0.3,2.1,0.9,2.9,1.8c0.9,0.9,1.4,1.9,1.9,3.2&#10;&#9;&#9;&#9;c0.4,1.2,0.7,2.8,0.7,4.6c0,1.7-0.2,3.1-0.6,4.2c-0.6,1.4-1.2,2.6-2.1,3.4c-0.8,0.7-1.7,1.2-2.8,1.6c-0.9,0.3-2.1,0.4-3.6,0.4&#10;&#9;&#9;&#9;h-7.5V583.1z M530.6,586.4v13h3c1.1,0,1.9,0,2.4-0.1c0.6-0.2,1.1-0.4,1.6-0.9c0.4-0.3,0.8-1,1-1.9c0.3-0.9,0.4-2,0.4-3.6&#10;&#9;&#9;&#9;c0-1.6-0.1-2.7-0.4-3.6c-0.2-0.8-0.6-1.4-1.1-1.9c-0.4-0.4-1.1-0.8-1.8-0.9c-0.6-0.1-1.7-0.2-3.3-0.2H530.6z M546.5,602.8v-19.7&#10;&#9;&#9;&#9;h8.3c2.1,0,3.7,0.2,4.7,0.6c0.9,0.3,1.7,1,2.2,1.9c0.6,0.9,0.9,2,0.9,3.1c0,1.4-0.4,2.7-1.3,3.7c-0.9,0.9-2.1,1.6-3.9,1.8&#10;&#9;&#9;&#9;c0.9,0.6,1.6,1.1,2.1,1.7c0.6,0.6,1.3,1.7,2.3,3.2l2.3,3.8h-4.7l-2.9-4.2c-1-1.6-1.8-2.6-2.1-2.9c-0.3-0.4-0.8-0.7-1.2-0.9&#10;&#9;&#9;&#9;c-0.4-0.1-1.1-0.2-2-0.2h-0.8v8.2H546.5z M550.5,591.4h2.9c2,0,3.1-0.1,3.7-0.2c0.4-0.1,0.8-0.4,1.1-0.8c0.2-0.4,0.3-0.9,0.3-1.6&#10;&#9;&#9;&#9;c0-0.7-0.1-1.1-0.6-1.6c-0.3-0.4-0.8-0.7-1.4-0.8c-0.3,0-1.3-0.1-2.9-0.1h-3.1V591.4z M584.1,602.8h-4.3l-1.7-4.4h-7.9l-1.7,4.4&#10;&#9;&#9;&#9;h-4.1l7.6-19.7h4.2L584.1,602.8z M576.7,595l-2.7-7.2l-2.7,7.2H576.7z M595.3,595.5v-3.3h8.6v7.9c-0.8,0.8-2,1.4-3.6,2.1&#10;&#9;&#9;&#9;c-1.7,0.6-3.2,0.9-4.9,0.9c-2,0-3.8-0.4-5.3-1.2c-1.6-0.9-2.7-2.1-3.4-3.8c-0.8-1.6-1.1-3.3-1.1-5.2c0-2,0.4-3.9,1.2-5.4&#10;&#9;&#9;&#9;c0.9-1.6,2.1-2.8,3.8-3.7c1.3-0.7,2.9-1,4.8-1c2.3,0,4.3,0.6,5.7,1.6c1.3,1,2.2,2.4,2.7,4.2l-4,0.8c-0.2-1-0.8-1.8-1.6-2.3&#10;&#9;&#9;&#9;c-0.8-0.6-1.7-0.8-2.8-0.8c-1.8,0-3.1,0.6-4.2,1.7c-1,1.1-1.4,2.7-1.4,4.9c0,2.3,0.4,4,1.6,5.2c1,1.1,2.3,1.8,4,1.8&#10;&#9;&#9;&#9;c0.9,0,1.7-0.2,2.6-0.6c0.8-0.3,1.6-0.7,2.1-1.1v-2.6H595.3z M606.8,593.1c0-2,0.2-3.7,0.9-5c0.4-1,1-2,1.8-2.8&#10;&#9;&#9;&#9;c0.8-0.8,1.7-1.3,2.6-1.8c1.2-0.4,2.7-0.8,4.2-0.8c2.9,0,5.2,0.9,7,2.8c1.7,1.8,2.6,4.2,2.6,7.5c0,3.2-0.9,5.7-2.6,7.5&#10;&#9;&#9;&#9;c-1.8,1.8-4,2.7-6.9,2.7c-3,0-5.3-0.9-7-2.7C607.5,598.7,606.8,596.2,606.8,593.1L606.8,593.1z M610.8,593c0,2.2,0.6,3.9,1.6,5&#10;&#9;&#9;&#9;c1.1,1.2,2.3,1.8,4,1.8c1.6,0,2.8-0.6,3.9-1.8c1-1.1,1.4-2.8,1.4-5.1c0-2.2-0.4-3.9-1.4-5c-1-1.1-2.3-1.7-3.9-1.7&#10;&#9;&#9;&#9;c-1.7,0-3,0.6-4,1.7C611.3,589,610.8,590.6,610.8,593L610.8,593z M628.9,602.8v-19.7h3.9l8,13.1v-13.1h3.8v19.7h-4l-7.9-12.8v12.8&#10;&#9;&#9;&#9;H628.9z" style="fill: rgb(65, 64, 66);" transform="matrix(1, 0, 0, 1, -486.8181686401367, -373.3492431640625)"/>
</svg>