<?xml version="1.0" encoding="utf-8"?>
<svg id="master-artboard" viewBox="0 0 192.10513305664062 238.18177795410156" version="1.1" xmlns="http://www.w3.org/2000/svg" x="0px" y="0px" style="enable-background:new 0 0 1400 980;" width="192.10513305664062px" height="238.18177795410156px"><rect id="ee-background" x="0" y="0" width="192.10513305664062" height="238.18177795410156" style="fill: white; fill-opacity: 0; pointer-events: none;"/>

<g transform="matrix(1, 0, 0, 1, -276.9617385864258, -369.6890335083008)">
			<path class="st10" d="M375.4,376.9c48.8,0,88.3,39.5,88.3,88.2s-39.5,88.2-88.3,88.2c-48.7,0-88.2-39.5-88.2-88.2&#10;&#9;&#9;&#9;&#9;S326.7,376.9,375.4,376.9L375.4,376.9z" style="fill-rule: evenodd; clip-rule: evenodd; fill: rgb(243, 184, 26);"/>
			<path class="st25" d="M375.4,376.9c48.8,0,88.3,39.5,88.3,88.2s-39.5,88.2-88.3,88.2V376.9z" style="fill-rule: evenodd; clip-rule: evenodd; fill: rgb(243, 151, 31);"/>
			<path class="st4" d="M324.1,491.1l58.6-90.6c3.9-6.1,4.8-6.9,2.8,0.7l-14.2,53.3l54.5-18.7c2.3-0.9,2.3,1.6,1.2,3.3l-58.6,90.6&#10;&#9;&#9;&#9;&#9;c-3.9,6.1-4.8,6.9-2.8-0.7l14.2-53.3l-54.5,18.7C322.9,495.3,322.9,492.9,324.1,491.1L324.1,491.1z" style="fill-rule: evenodd; clip-rule: evenodd; fill: rgb(255, 255, 255);"/>
			<path class="st26" d="M375.4,411.5l7.2-11c3.9-6.1,4.8-6.9,2.8,0.7l-10,37.3V411.5z M375.4,453l50.3-17.2&#10;&#9;&#9;&#9;&#9;c2.3-0.9,2.3,1.6,1.2,3.3l-51.5,79.6v-26.9l4.3-16l-4.3,1.4V453z" style="fill-rule: evenodd; clip-rule: evenodd; fill: rgb(255, 203, 5);"/>
		</g><path class="st5" d="M309.5,602.8v-19.7h14.6v3.3h-10.6v4.4h9.9v3.2h-9.9v5.3h11v3.3H309.5z M327.9,602.8v-19.5h4v16.1h9.8v3.3&#10;&#9;&#9;&#9;H327.9z M344.6,602.8v-19.7h14.6v3.3h-10.7v4.4h9.9v3.2h-9.9v5.3h11v3.3H344.6z M375.5,595.5l3.8,1.2c-0.6,2.1-1.6,3.8-2.9,4.8&#10;&#9;&#9;&#9;c-1.4,1-3.1,1.6-5.2,1.6c-2.7,0-4.8-0.9-6.5-2.7c-1.7-1.8-2.6-4.2-2.6-7.3c0-3.2,0.9-5.8,2.6-7.6c1.7-1.8,3.9-2.8,6.7-2.8&#10;&#9;&#9;&#9;c2.3,0,4.3,0.8,5.9,2.2c0.9,0.8,1.6,2,2,3.6l-4,1c-0.2-1.1-0.7-1.9-1.4-2.4c-0.7-0.6-1.6-0.9-2.7-0.9c-1.4,0-2.7,0.6-3.6,1.6&#10;&#9;&#9;&#9;c-0.9,1-1.3,2.8-1.3,5.1c0,2.4,0.4,4.2,1.3,5.2c0.9,1.1,2,1.7,3.4,1.7c1.1,0,2-0.3,2.8-1C374.7,598.1,375.2,597,375.5,595.5&#10;&#9;&#9;&#9;L375.5,595.5z M387.2,602.8v-16.3h-5.9v-3.3H397v3.3h-5.9v16.3H387.2z M399.6,602.8v-19.7h8.3c2.1,0,3.6,0.2,4.6,0.6&#10;&#9;&#9;&#9;c1,0.3,1.7,1,2.3,1.9c0.6,0.9,0.8,2,0.8,3.1c0,1.4-0.4,2.7-1.2,3.7c-0.9,0.9-2.2,1.6-3.9,1.8c0.8,0.6,1.6,1.1,2.1,1.7&#10;&#9;&#9;&#9;c0.6,0.6,1.3,1.7,2.2,3.2l2.4,3.8h-4.8l-2.9-4.2c-1-1.6-1.7-2.6-2.1-2.9c-0.3-0.4-0.8-0.7-1.1-0.9c-0.4-0.1-1.1-0.2-2-0.2h-0.9&#10;&#9;&#9;&#9;v8.2H399.6z M403.5,591.4h3c1.9,0,3.1-0.1,3.6-0.2s0.8-0.4,1.1-0.8c0.2-0.4,0.4-0.9,0.4-1.6c0-0.7-0.2-1.1-0.6-1.6&#10;&#9;&#9;&#9;c-0.3-0.4-0.9-0.7-1.6-0.8c-0.3,0-1.2-0.1-2.9-0.1h-3.1V591.4z M419.2,602.8v-19.7h4v19.7H419.2z M439.6,595.5l3.8,1.2&#10;&#9;&#9;&#9;c-0.6,2.1-1.6,3.8-2.9,4.8c-1.4,1-3.1,1.6-5.2,1.6c-2.7,0-4.8-0.9-6.5-2.7c-1.7-1.8-2.6-4.2-2.6-7.3c0-3.2,0.9-5.8,2.6-7.6&#10;&#9;&#9;&#9;c1.7-1.8,3.9-2.8,6.7-2.8c2.4,0,4.3,0.8,5.9,2.2c0.9,0.8,1.6,2,2,3.6l-4,1c-0.2-1.1-0.7-1.9-1.4-2.4c-0.7-0.6-1.6-0.9-2.7-0.9&#10;&#9;&#9;&#9;c-1.4,0-2.7,0.6-3.6,1.6c-0.9,1-1.3,2.8-1.3,5.1c0,2.4,0.4,4.2,1.3,5.2c0.9,1.1,2.1,1.7,3.4,1.7c1.1,0,2-0.3,2.8-1&#10;&#9;&#9;&#9;C438.7,598.1,439.3,597,439.6,595.5L439.6,595.5z" style="fill: rgb(65, 64, 66);" transform="matrix(1, 0, 0, 1, -276.9617385864258, -369.6890335083008)"/>
</svg>