<?xml version="1.0" encoding="utf-8"?>
<svg id="master-artboard" viewBox="0 0 192.10513305664062 238.18177795410156" version="1.1" xmlns="http://www.w3.org/2000/svg" x="0px" y="0px" style="enable-background:new 0 0 1400 980;" width="192.10513305664062px" height="238.18177795410156px"><rect id="ee-background" x="0" y="0" width="192.10513305664062" height="238.18177795410156" style="fill: white; fill-opacity: 0; pointer-events: none;"/>

<g transform="matrix(1, 0, 0, 1, -1128.588493347168, -657.63134765625)">
			<path class="st30" d="M1227.2,662.3c48.7,0,88.3,39.5,88.3,88.3c0,48.7-39.6,88.2-88.3,88.2s-88.2-39.5-88.2-88.2&#10;&#9;&#9;&#9;&#9;C1139,701.7,1178.5,662.3,1227.2,662.3L1227.2,662.3z" style="fill-rule: evenodd; clip-rule: evenodd; fill: rgb(246, 226, 148);"/>
			<path class="st31" d="M1227.2,662.3c48.7,0,88.3,39.5,88.3,88.3c0,48.7-39.6,88.2-88.3,88.2V662.3z" style="fill-rule: evenodd; clip-rule: evenodd; fill: rgb(250, 205, 133);"/>
			<path class="st0" d="M1176.8,704.1c-1.8,4.8,24.8,36.9,24.6,49.8c-0.1,6.2-30.4,16.6-22.9,18.7c4.9,1.4,22.6-1.3,21.5,3.3&#10;&#9;&#9;&#9;&#9;c-1.2,4.7-13.2,22.8-9.6,21.7c7.3-2.3,23.9-13.2,33.1-26.9c3.1-4.7,4.2-4.8,7.5,0c9.1,13.8,25.7,24.6,33.1,26.9&#10;&#9;&#9;&#9;&#9;c3.6,1.1-8.5-17-9.6-21.7c-1.2-4.7,16.6-1.9,21.5-3.3c7.5-2.1-22.8-12.5-22.9-18.7c-0.3-12.9,26.4-45,24.5-49.8&#10;&#9;&#9;&#9;&#9;c-1.7-4.4-30.2,14.7-45.2,30.1c-5,5.1-5.9,4.7-10.3,0C1207.2,718.8,1178.5,699.6,1176.8,704.1L1176.8,704.1z" style="fill-rule: evenodd; clip-rule: evenodd; fill: rgb(31, 175, 223);"/>
			<path class="st1" d="M1227.2,767.1c1.1,0,2.2,1.2,3.8,3.6c9.1,13.8,25.7,24.6,33.1,26.9c3.6,1.1-8.5-17-9.6-21.7&#10;&#9;&#9;&#9;&#9;c-1.2-4.7,16.6-1.9,21.5-3.3c7.5-2.1-22.8-12.5-22.9-18.7c-0.3-12.9,26.4-45,24.5-49.8c-1.7-4.4-30.2,14.7-45.2,30.1&#10;&#9;&#9;&#9;&#9;c-2.3,2.4-3.8,3.6-5.2,3.7V767.1z" style="fill-rule: evenodd; clip-rule: evenodd; fill: rgb(10, 135, 179);"/>
		</g><path class="st5" d="M1190,888.2v-19.7h13.5v3.3h-9.6v4.7h8.2v3.3h-8.2v8.3H1190z M1223,888.2h-4.3l-1.7-4.4h-7.9l-1.6,4.4h-4.2&#10;&#9;&#9;&#9;l7.7-19.7h4.1L1223,888.2z M1215.6,880.5l-2.7-7.3l-2.7,7.3H1215.6z M1225,888.2v-19.7h4v19.7H1225z M1232.8,888.2v-19.7h8.3&#10;&#9;&#9;&#9;c2.1,0,3.6,0.2,4.6,0.6c1,0.3,1.7,1,2.3,1.9c0.6,0.9,0.8,1.9,0.8,3.1c0,1.4-0.4,2.7-1.2,3.6c-0.9,1-2.2,1.6-3.9,1.9&#10;&#9;&#9;&#9;c0.8,0.4,1.6,1,2.1,1.7c0.6,0.6,1.2,1.6,2.2,3.1l2.4,3.9h-4.8l-2.9-4.3c-1-1.6-1.7-2.4-2.1-2.9c-0.3-0.3-0.8-0.7-1.1-0.8&#10;&#9;&#9;&#9;c-0.4-0.1-1.1-0.2-2-0.2h-0.9v8.2H1232.8z M1236.6,876.9h3c1.9,0,3.1-0.1,3.6-0.2c0.4-0.2,0.8-0.4,1.1-0.9&#10;&#9;&#9;&#9;c0.2-0.3,0.3-0.9,0.3-1.4c0-0.7-0.1-1.2-0.4-1.7c-0.3-0.3-0.9-0.7-1.6-0.8c-0.3,0-1.2,0-2.9,0h-3.1V876.9z M1256.7,888.2v-8.3&#10;&#9;&#9;&#9;l-7.2-11.3h4.7l4.7,7.8l4.6-7.8h4.6l-7.2,11.5v8.2H1256.7z" style="fill: rgb(65, 64, 66);" transform="matrix(1, 0, 0, 1, -1128.588493347168, -657.63134765625)"/>
</svg>