<?xml version="1.0" encoding="utf-8"?>
<svg id="master-artboard" viewBox="0 0 192.10513305664062 238.18177795410156" version="1.1" xmlns="http://www.w3.org/2000/svg" x="0px" y="0px" style="enable-background:new 0 0 1400 980;" width="192.10513305664062px" height="238.18177795410156px"><rect id="ee-background" x="0" y="0" width="192.10513305664062" height="238.18177795410156" style="fill: white; fill-opacity: 0; pointer-events: none;"/>

<g transform="matrix(1, 0, 0, 1, -78.08615112304688, -656.4115600585938)">
			<path class="st8" d="M172.7,662.3c48.8,0,88.3,39.5,88.3,88.3c0,48.7-39.5,88.2-88.3,88.2c-48.7,0-88.2-39.5-88.2-88.2&#10;&#9;&#9;&#9;&#9;C84.5,701.7,124,662.3,172.7,662.3L172.7,662.3z" style="fill-rule: evenodd; clip-rule: evenodd; fill: rgb(185, 32, 37);"/>
			<path class="st9" d="M172.7,662.3c48.8,0,88.3,39.5,88.3,88.3c0,48.7-39.5,88.2-88.3,88.2V662.3z" style="fill-rule: evenodd; clip-rule: evenodd; fill: rgb(143, 25, 28);"/>
			<path class="st13" d="M135.4,695.1L135.4,695.1c5.8,0,10.6,4.8,10.6,10.7v21c0,5.8-4.8,10.6-10.6,10.6l0,0&#10;&#9;&#9;&#9;&#9;c-5.9,0-10.7-4.8-10.7-10.6v-21C124.8,699.9,129.5,695.1,135.4,695.1L135.4,695.1z M188.7,788.7c4.8,0,8.7,3.9,8.7,8.7v7&#10;&#9;&#9;&#9;&#9;c0,4.8-4,8.8-8.7,8.8h-29.6c-4.8,0-8.7-4-8.7-8.8v-7c0-4.8,3.9-8.7,8.7-8.7H188.7z M212,742c4.8,0,8.8,3.9,8.8,8.7v24.8&#10;&#9;&#9;&#9;&#9;c0,4.8-4,8.8-8.8,8.8c-13.8,0-27.7,0-41.5,0c-4.6,0-8.2-3.8-8.2-8.3c0-4.4,3.7-8.2,8.2-8.2H181v-17c0-4.8,3.9-8.7,8.7-8.7H212z&#10;&#9;&#9;&#9;&#9; M133.5,742c-4.8,0-8.8,3.9-8.8,8.7v24.8c0,4.8,4,8.8,8.8,8.8H149c4.8,0,8.7-4,8.7-8.8v-12.2h8.2c5.9,0,10.7-4.8,10.7-10.7&#10;&#9;&#9;&#9;&#9;c0-5.8-4.8-10.6-10.7-10.6C155.1,742,144.3,742,133.5,742L133.5,742z M211.3,699.7L211.3,699.7c5.1,0,9.5,4.2,9.5,9.5v18.7&#10;&#9;&#9;&#9;&#9;c0,5.2-4.3,9.5-9.5,9.5l0,0c-5.2,0-9.5-4.2-9.5-9.5v-18.7C201.8,704,206.1,699.7,211.3,699.7L211.3,699.7z M161.1,688L161.1,688&#10;&#9;&#9;&#9;&#9;c5.8,0,10.6,4.8,10.6,10.6v28.2c0,5.8-4.8,10.6-10.6,10.6l0,0c-5.9,0-10.7-4.8-10.7-10.6v-28.2C150.5,692.7,155.2,688,161.1,688&#10;&#9;&#9;&#9;&#9;L161.1,688z M186.7,695.1L186.7,695.1c5.9,0,10.7,4.8,10.7,10.7v21c0,5.8-4.8,10.6-10.7,10.6l0,0c-5.8,0-10.6-4.8-10.6-10.6v-21&#10;&#9;&#9;&#9;&#9;C176.1,699.9,180.9,695.1,186.7,695.1L186.7,695.1z" style="fill-rule: evenodd; clip-rule: evenodd; fill: rgb(232, 232, 95);"/>
			<path class="st14" d="M172.7,813.1v-24.4h16c4.8,0,8.7,3.9,8.7,8.7v7c0,4.8-4,8.7-8.7,8.7H172.7z M172.7,784.3v-16.6h8.3v-17&#10;&#9;&#9;&#9;&#9;c0-4.8,3.9-8.7,8.7-8.7H212c4.8,0,8.8,3.9,8.8,8.7v24.8c0,4.8-4,8.8-8.8,8.8H172.7z M172.7,760.8v-16.3c2.3,2,3.9,4.9,3.9,8.1&#10;&#9;&#9;&#9;&#9;C176.6,755.9,175,758.8,172.7,760.8L172.7,760.8z M211.3,699.7L211.3,699.7c5.1,0,9.5,4.2,9.5,9.5v18.7c0,5.2-4.3,9.5-9.5,9.5&#10;&#9;&#9;&#9;&#9;l0,0c-5.2,0-9.5-4.2-9.5-9.5v-18.7C201.8,704,206.1,699.7,211.3,699.7L211.3,699.7z M186.7,695.1L186.7,695.1&#10;&#9;&#9;&#9;&#9;c5.9,0,10.7,4.8,10.7,10.7v21c0,5.8-4.8,10.6-10.7,10.6l0,0c-5.8,0-10.6-4.8-10.6-10.6v-21C176.1,699.9,180.9,695.1,186.7,695.1&#10;&#9;&#9;&#9;&#9;L186.7,695.1z" style="fill-rule: evenodd; clip-rule: evenodd; fill: rgb(191, 211, 48);"/>
		</g><path class="st5" d="M109.2,888.2v-19.7h13.6v3.3h-9.6v4.7h8.2v3.3h-8.2v8.3H109.2z M125.9,888.2v-19.7h4v19.7H125.9z M142.8,881&#10;&#9;&#9;&#9;v-3.3h8.6v7.8c-0.9,0.9-2,1.6-3.7,2.1c-1.6,0.7-3.1,1-4.8,1c-2,0-3.8-0.4-5.3-1.3c-1.6-0.9-2.7-2.1-3.4-3.7&#10;&#9;&#9;&#9;c-0.8-1.7-1.1-3.3-1.1-5.2c0-2.1,0.3-3.9,1.2-5.4c0.9-1.7,2.1-2.9,3.8-3.7c1.2-0.7,2.8-1,4.7-1c2.4,0,4.3,0.6,5.8,1.6&#10;&#9;&#9;&#9;c1.3,1,2.2,2.4,2.7,4.2l-4,0.8c-0.2-1-0.8-1.8-1.6-2.3c-0.8-0.6-1.7-0.9-2.9-0.9c-1.7,0-3.1,0.6-4.1,1.7s-1.6,2.8-1.6,4.9&#10;&#9;&#9;&#9;c0,2.3,0.6,4.1,1.6,5.3c1.1,1.1,2.4,1.7,4.1,1.7c0.8,0,1.7-0.1,2.4-0.4c0.9-0.3,1.6-0.8,2.2-1.2V881H142.8z M155,888.2v-19.7h4&#10;&#9;&#9;&#9;v7.8h7.8v-7.8h3.9v19.7h-3.9v-8.7H159v8.7H155z M179.3,888.2v-16.3h-5.9v-3.3H189v3.3h-5.8v16.3H179.3z M191.5,888.2v-19.7h4v19.7&#10;&#9;&#9;&#9;H191.5z M199.3,888.2v-19.7h3.9l8,13.1v-13.1h3.7v19.7h-4l-7.9-12.9v12.9H199.3z M228.2,881v-3.3h8.6v7.8c-0.8,0.9-2,1.6-3.6,2.1&#10;&#9;&#9;&#9;c-1.7,0.7-3.2,1-4.9,1c-2,0-3.8-0.4-5.3-1.3c-1.6-0.9-2.7-2.1-3.4-3.7c-0.8-1.7-1.1-3.3-1.1-5.2c0-2.1,0.4-3.9,1.2-5.4&#10;&#9;&#9;&#9;c0.9-1.7,2.1-2.9,3.8-3.7c1.3-0.7,2.9-1,4.7-1c2.4,0,4.4,0.6,5.8,1.6c1.3,1,2.2,2.4,2.7,4.2l-4,0.8c-0.2-1-0.8-1.8-1.6-2.3&#10;&#9;&#9;&#9;c-0.8-0.6-1.7-0.9-2.9-0.9c-1.7,0-3,0.6-4.1,1.7c-1,1.1-1.4,2.8-1.4,4.9c0,2.3,0.4,4.1,1.4,5.3c1.1,1.1,2.4,1.7,4.1,1.7&#10;&#9;&#9;&#9;c0.9,0,1.7-0.1,2.6-0.4c0.8-0.3,1.6-0.8,2.1-1.2V881H228.2z" style="fill: rgb(65, 64, 66);" transform="matrix(1, 0, 0, 1, -78.08615112304688, -656.4115600585938)"/>
</svg>