<?xml version="1.0" encoding="utf-8"?>
<svg id="master-artboard" viewBox="0 0 192.10513305664062 238.18177795410156" version="1.1" xmlns="http://www.w3.org/2000/svg" x="0px" y="0px" style="enable-background:new 0 0 1400 980;" width="192.10513305664062px" height="238.18177795410156px"><rect id="ee-background" x="0" y="0" width="192.10513305664062" height="238.18177795410156" style="fill: white; fill-opacity: 0; pointer-events: none;"/>

<g transform="matrix(1, 0, 0, 1, -278.18184661865234, -87.8469009399414)">
			<path class="st6" d="M375.4,91.4c48.8,0,88.3,39.5,88.3,88.2c0,48.8-39.5,88.3-88.3,88.3c-48.7,0-88.2-39.5-88.2-88.3&#10;&#9;&#9;&#9;&#9;C287.2,130.9,326.7,91.4,375.4,91.4L375.4,91.4z" style="fill-rule: evenodd; clip-rule: evenodd; fill: rgb(244, 139, 32);"/>
			<path class="st7" d="M375.4,91.4c48.8,0,88.3,39.5,88.3,88.2c0,48.8-39.5,88.3-88.3,88.3V91.4z" style="fill-rule: evenodd; clip-rule: evenodd; fill: rgb(243, 112, 33);"/>
			<path class="st8" d="M317.8,200.1c2.6,0.9,3.3,6.3,8.2,5.9c2.4-0.2,2-0.8,1-2.9c-2.8-6.1-10-22.6-3.8-33.9&#10;&#9;&#9;&#9;&#9;c7.8-14,14.3-19.9,15-23.4c0.6-3.3,4.7,4.7,0,14c-3,5.9-1.1,10.5,0.7,13c3,4.1,1.9,1.7,2.2-1.6c0.7-6.1,3.9-18.3,18.6-26.7&#10;&#9;&#9;&#9;&#9;c20.2-11.5,3.4-29.8,6.8-31.4c3.4-1.6,23.7,6.8,30.6,31.7c6.8,24.9-0.7,32,3.3,33.6c4.1,1.6,25.6-13,28.4-18.9&#10;&#9;&#9;&#9;&#9;c0.7-1.3,1.6-0.9,2.3,0.9c2.6,5.8,3.9,24.9-10.2,37.4c-1.4,1.2-2.8,2.9,0.1,2.7c4.7-0.2,12.5-1.6,18.1-6.8&#10;&#9;&#9;&#9;&#9;c3.2-2.8,4.7-7.8,3.9,0.7c-0.6,5.8-3.8,15.2-17.6,22.6c-9.6,5.1-16,15.8-26.8,22.7c-11.3,7.2-27.7,8.3-40.4,4.3&#10;&#9;&#9;&#9;&#9;c-16-4.9-12-17.5-28.6-25.2c-8.8-4.1-12.9-14.5-13-17.8C316.7,200.1,316.9,199.9,317.8,200.1L317.8,200.1z" style="fill-rule: evenodd; clip-rule: evenodd; fill: rgb(185, 32, 37);"/>
			<path class="st9" d="M375.4,115.8c7.5,4.1,17.2,13.2,21.7,29.1c6.8,24.9-0.7,32,3.3,33.6c4.1,1.6,25.6-13,28.4-18.9&#10;&#9;&#9;&#9;&#9;c0.7-1.3,1.6-0.9,2.3,0.9c2.6,5.8,3.9,24.9-10.2,37.4c-1.4,1.2-2.8,2.9,0.1,2.7c4.7-0.2,12.5-1.6,18.1-6.8&#10;&#9;&#9;&#9;&#9;c3.2-2.8,4.7-7.8,3.9,0.7c-0.6,5.8-3.8,15.2-17.6,22.6c-9.6,5.1-16,15.8-26.8,22.7c-6.6,4.2-14.9,6.3-23.2,6.7V115.8z" style="fill-rule: evenodd; clip-rule: evenodd; fill: rgb(143, 25, 28);"/>
			<path class="st10" d="M372.5,242.4c0,0-15.3-0.4-19.5-9c-4.2-8.6,4.1-10.7,0.9-15.2c-3.2-4.6-5.6-8.6-2.1-7.3&#10;&#9;&#9;&#9;&#9;c3.3,1.2,13,7.8,13.5,2.2c0.4-5.7-5-13.2-0.1-19.1c4.8-5.9,9.9-7.5,10.1-14.5c0.1-7,6,4,2.4,9.6c-3.6,5.7-7,7.2-1.3,11.3&#10;&#9;&#9;&#9;&#9;c5.6,4.2,7,2.3,6.7,7.3c-0.3,5,7.2,7.8,11.5,1c4.2-6.9-2.1-16-0.9-15.8c1.2,0.3,8.9,12.3,4.7,20.1c-2,3.7-1.9,5.2-1.2,6.8&#10;&#9;&#9;&#9;&#9;C405.2,238.7,388,242.9,372.5,242.4L372.5,242.4z" style="fill-rule: evenodd; clip-rule: evenodd; fill: rgb(243, 184, 26);"/>
			<path class="st6" d="M375.4,177.9c1-3.4,5.6,6.1,2.3,11.1c-0.8,1.3-1.6,2.3-2.3,3.3V177.9z M375.4,199.7c0.3,0.2,0.7,0.4,1,0.7&#10;&#9;&#9;&#9;&#9;c5.6,4.2,7,2.3,6.7,7.3c-0.3,5,7.2,7.8,11.5,1c4.2-6.9-2.1-16-0.9-15.8c1.2,0.3,8.9,12.3,4.7,20.1c-2,3.7-1.9,5.2-1.2,6.8&#10;&#9;&#9;&#9;&#9;c7.6,17.6-7,22.4-21.7,22.6V199.7z" style="fill-rule: evenodd; clip-rule: evenodd; fill: rgb(244, 139, 32);"/>
		</g><path class="st5" d="M347,317.4v-19.7h13.5v3.3h-9.6v4.7h8.2v3.3h-8.2v8.3H347z M363.5,317.4v-19.7h4v19.7H363.5z M371.3,317.4&#10;&#9;&#9;&#9;v-19.7h8.3c2.1,0,3.7,0.1,4.6,0.6c1,0.3,1.8,0.9,2.3,1.9c0.6,0.9,0.8,1.9,0.8,3c0,1.6-0.3,2.8-1.2,3.7c-0.9,1-2.2,1.6-3.9,1.9&#10;&#9;&#9;&#9;c0.8,0.4,1.6,1,2.1,1.6c0.6,0.7,1.3,1.7,2.2,3.2l2.4,3.9h-4.8l-2.9-4.3c-1-1.6-1.7-2.4-2.1-2.9c-0.3-0.3-0.7-0.7-1.1-0.8&#10;&#9;&#9;&#9;c-0.4-0.2-1.1-0.2-2-0.2h-0.8v8.2H371.3z M375.3,306.1h2.9c1.9,0,3.1-0.1,3.6-0.3c0.4-0.1,0.9-0.3,1.1-0.8&#10;&#9;&#9;&#9;c0.2-0.4,0.4-0.9,0.4-1.4c0-0.7-0.2-1.2-0.6-1.7c-0.3-0.3-0.9-0.7-1.6-0.8c-0.2,0-1.2,0-2.9,0h-3V306.1z M391.1,317.4v-19.7h14.6&#10;&#9;&#9;&#9;v3.3h-10.6v4.3h9.8v3.3h-9.8v5.3H406v3.3H391.1z" style="fill: rgb(65, 64, 66);" transform="matrix(1, 0, 0, 1, -278.18184661865234, -87.8469009399414)"/>
</svg>