<?xml version="1.0" encoding="utf-8"?>
<svg id="master-artboard" viewBox="0 0 192.10513305664062 238.18177795410156" version="1.1" xmlns="http://www.w3.org/2000/svg" x="0px" y="0px" style="enable-background:new 0 0 1400 980;" width="192.10513305664062px" height="238.18177795410156px"><rect id="ee-background" x="0" y="0" width="192.10513305664062" height="238.18177795410156" style="fill: white; fill-opacity: 0; pointer-events: none;"/>

<g transform="matrix(1, 0, 0, 1, -693.0143432617188, -656.4114074707031)">
			<path class="st0" d="M791.1,662.3c48.7,0,88.2,39.5,88.2,88.3c0,48.7-39.5,88.2-88.2,88.2c-48.7,0-88.3-39.5-88.3-88.2&#10;&#9;&#9;&#9;&#9;C702.8,701.7,742.4,662.3,791.1,662.3L791.1,662.3z" style="fill-rule: evenodd; clip-rule: evenodd; fill: rgb(31, 175, 223);"/>
			<path class="st1" d="M791.1,662.3c48.7,0,88.2,39.5,88.2,88.3c0,48.7-39.5,88.2-88.2,88.2V662.3z" style="fill-rule: evenodd; clip-rule: evenodd; fill: rgb(10, 135, 179);"/>
			<path class="st4" d="M756.8,747.5c51.7-38.7,80.2-60.9,88.5-55.9c8.2,4.8-26.8,39.5-25.1,45.2c1.8,5.7,28.6,5.9,28.8,10.1&#10;&#9;&#9;&#9;&#9;c0.3,4.2-23.9,9.9-25.7,14.7c-1.7,4.9,25.7,13.3,25.5,19.2c-0.3,5.9-32.5-2.2-34.5,2s5.3,18.2,0.4,21.6&#10;&#9;&#9;&#9;&#9;c-5,3.3-24.7-14.2-28.7-11.1c-3.9,3.1-5,18.9-26.2,16.9c-14.2-1.3-24.9-11.9-26.4-25C731.5,767.5,744.2,756.8,756.8,747.5&#10;&#9;&#9;&#9;&#9;L756.8,747.5z" style="fill-rule: evenodd; clip-rule: evenodd; fill: rgb(255, 255, 255);"/>
			<path class="st27" d="M791.1,721.8c30.2-22.4,47.8-34,54.2-30.2c8.2,4.8-26.8,39.5-25.1,45.2c1.8,5.7,28.6,5.9,28.8,10.1&#10;&#9;&#9;&#9;&#9;c0.3,4.2-23.9,9.9-25.7,14.7c-1.7,4.9,25.7,13.3,25.5,19.2c-0.3,5.9-32.5-2.2-34.5,2s5.3,18.2,0.4,21.6&#10;&#9;&#9;&#9;&#9;c-3.9,2.6-16.2-7.1-23.6-10.5V721.8z" style="fill-rule: evenodd; clip-rule: evenodd; fill: rgb(229, 230, 231);"/>
		</g><path class="st5" d="M744.8,888.2v-19.7h13.5v3.3h-9.6v4.7h8.2v3.3h-8.2v8.3H744.8z M761.6,888.2v-19.6h4v16.2h9.9v3.3H761.6z&#10;&#9;&#9;&#9; M780.9,888.2v-8.3l-7.2-11.3h4.7l4.7,7.8l4.4-7.8h4.6l-7.2,11.5v8.2H780.9z M793.9,888.2v-19.7h4v19.7H793.9z M801.7,888.2v-19.7&#10;&#9;&#9;&#9;h3.9l8,13.1v-13.1h3.7v19.7h-3.9l-8-12.9v12.9H801.7z M830.6,881v-3.3h8.6v7.8c-0.8,0.9-2,1.6-3.6,2.1c-1.6,0.7-3.2,1-4.8,1&#10;&#9;&#9;&#9;c-2.1,0-3.9-0.4-5.4-1.3c-1.4-0.9-2.7-2.1-3.4-3.7c-0.8-1.7-1.1-3.3-1.1-5.2c0-2.1,0.4-3.9,1.2-5.4c0.9-1.7,2.1-2.9,3.8-3.7&#10;&#9;&#9;&#9;c1.3-0.7,2.9-1,4.8-1c2.4,0,4.3,0.6,5.7,1.6c1.3,1,2.2,2.4,2.7,4.2l-3.9,0.8c-0.3-1-0.9-1.8-1.7-2.3c-0.7-0.6-1.7-0.9-2.8-0.9&#10;&#9;&#9;&#9;c-1.8,0-3.1,0.6-4.2,1.7c-1,1.1-1.4,2.8-1.4,4.9c0,2.3,0.4,4.1,1.6,5.3c1,1.1,2.3,1.7,4,1.7c0.9,0,1.7-0.1,2.6-0.4&#10;&#9;&#9;&#9;c0.8-0.3,1.6-0.8,2.1-1.2V881H830.6z" style="fill: rgb(65, 64, 66);" transform="matrix(1, 0, 0, 1, -693.0143432617188, -656.4114074707031)"/>
</svg>