<?xml version="1.0" encoding="utf-8"?>
<svg id="master-artboard" viewBox="0 0 192.10513305664062 238.18177795410156" version="1.1" xmlns="http://www.w3.org/2000/svg" x="0px" y="0px" style="enable-background:new 0 0 1400 980;" width="192.10513305664062px" height="238.18177795410156px"><rect id="ee-background" x="0" y="0" width="192.10513305664062" height="238.18177795410156" style="fill: white; fill-opacity: 0; pointer-events: none;"/>

<g transform="matrix(1, 0, 0, 1, -694.2344284057617, -372.1291198730469)">
			<path class="st21" d="M791.1,376.9c48.7,0,88.2,39.5,88.2,88.2s-39.5,88.2-88.2,88.2c-48.7,0-88.3-39.5-88.3-88.2&#10;&#9;&#9;&#9;&#9;S742.4,376.9,791.1,376.9L791.1,376.9z" style="fill-rule: evenodd; clip-rule: evenodd; fill: rgb(139, 126, 113);"/>
			<path class="st22" d="M791.1,376.9c48.7,0,88.2,39.5,88.2,88.2s-39.5,88.2-88.2,88.2V376.9z" style="fill-rule: evenodd; clip-rule: evenodd; fill: rgb(116, 92, 68);"/>
			<path class="st4" d="M712,468.4c-1.2,15.3,8.1-15.2,29.8-23.2c40.1-14.8,47,26,60.9,41.3c34.7,37.7,73.8-8.8,55.8-50.4&#10;&#9;&#9;&#9;&#9;C829.4,368.1,718.4,390.1,712,468.4L712,468.4z M857.5,489.9c-0.6,3,0.2,4,1.8,4.3c2.9,0.6,4.4,0.9,6.2,3.2c1.9,2.4,4.2,1,4.1-4&#10;&#9;&#9;&#9;&#9;C869.4,485.7,859.4,481.3,857.5,489.9L857.5,489.9z M793.6,507.8c-0.1,3.8,3.8,2.7,6,2.4c1,0,1.9,0,2.6,0.8c2,2.3,4-0.7,7.3,0.8&#10;&#9;&#9;&#9;&#9;c7.7,3.2,4.8-13.5-5.2-13.9C799.7,497.7,793.8,500.5,793.6,507.8L793.6,507.8z M830.4,486.6c-5.7,6.7-16.8,2.7-22.4-2.2&#10;&#9;&#9;&#9;&#9;c-5.6-4.8-6.3-13-1.7-18.5C812.2,459.1,836.2,480,830.4,486.6L830.4,486.6z M844.1,485.3c4.1-0.4,9.2-6,10.5-11.2&#10;&#9;&#9;&#9;&#9;c1.4-5.9-1.7-11.6-6.9-12.7C839.3,459.9,836,486.1,844.1,485.3L844.1,485.3z" style="fill-rule: evenodd; clip-rule: evenodd; fill: rgb(255, 255, 255);"/>
			<path class="st27" d="M791.1,468.3c3.9,6.9,7.5,13.6,11.6,18.1c34.7,37.7,73.8-8.8,55.8-50.4c-12.5-29-39.7-41.6-67.4-40.5V468.3&#10;&#9;&#9;&#9;&#9;z M857.5,489.9c-0.6,3,0.2,4,1.8,4.3c2.9,0.6,4.4,0.9,6.2,3.2c1.9,2.4,4.2,1,4.1-4C869.4,485.7,859.4,481.3,857.5,489.9&#10;&#9;&#9;&#9;&#9;L857.5,489.9z M793.6,507.8c-0.1,3.8,3.8,2.7,6,2.4c1,0,1.9,0,2.6,0.8c2,2.3,4-0.7,7.3,0.8c7.7,3.2,4.8-13.5-5.2-13.9&#10;&#9;&#9;&#9;&#9;C799.7,497.7,793.8,500.5,793.6,507.8L793.6,507.8z M830.4,486.6c-5.7,6.7-16.8,2.7-22.4-2.2c-5.6-4.8-6.3-13-1.7-18.5&#10;&#9;&#9;&#9;&#9;C812.2,459.1,836.2,480,830.4,486.6L830.4,486.6z M844.1,485.3c4.1-0.4,9.2-6,10.5-11.2c1.4-5.9-1.7-11.6-6.9-12.7&#10;&#9;&#9;&#9;&#9;C839.3,459.9,836,486.1,844.1,485.3L844.1,485.3z" style="fill-rule: evenodd; clip-rule: evenodd; fill: rgb(229, 230, 231);"/>
		</g><path class="st5" d="M754.1,595.5v-3.3h8.6v7.9c-0.9,0.8-2,1.4-3.7,2.1c-1.6,0.6-3.1,0.9-4.8,0.9c-2,0-3.8-0.4-5.3-1.2&#10;&#9;&#9;&#9;c-1.6-0.9-2.7-2.1-3.4-3.8c-0.8-1.6-1.1-3.3-1.1-5.2c0-2,0.3-3.9,1.2-5.4s2.1-2.8,3.8-3.7c1.2-0.7,2.9-1,4.7-1&#10;&#9;&#9;&#9;c2.4,0,4.4,0.6,5.8,1.6c1.3,1,2.2,2.4,2.7,4.2l-4,0.8c-0.2-1-0.8-1.8-1.6-2.3c-0.8-0.6-1.7-0.8-2.9-0.8c-1.7,0-3.1,0.6-4.1,1.7&#10;&#9;&#9;&#9;c-1,1.1-1.6,2.7-1.6,4.9c0,2.3,0.6,4,1.6,5.2c1.1,1.1,2.4,1.8,4.1,1.8c0.9,0,1.7-0.2,2.6-0.6c0.8-0.3,1.4-0.7,2.1-1.1v-2.6H754.1z&#10;&#9;&#9;&#9; M766.3,602.8v-19.7h4v7.8h7.8v-7.8h3.9v19.7h-3.9v-8.6h-7.8v8.6H766.3z M785.4,593.1c0-2,0.3-3.7,0.9-5c0.4-1,1.1-2,1.8-2.8&#10;&#9;&#9;&#9;c0.8-0.8,1.7-1.3,2.6-1.8c1.2-0.4,2.7-0.8,4.2-0.8c2.9,0,5.2,0.9,7,2.8c1.8,1.8,2.6,4.2,2.6,7.5c0,3.2-0.8,5.7-2.6,7.5&#10;&#9;&#9;&#9;c-1.7,1.8-4,2.7-6.9,2.7c-2.9,0-5.2-0.9-7-2.7C786.2,598.7,785.4,596.2,785.4,593.1L785.4,593.1z M789.5,593c0,2.2,0.4,3.9,1.6,5&#10;&#9;&#9;&#9;c1,1.2,2.3,1.8,3.9,1.8s2.9-0.6,3.9-1.8c1-1.1,1.4-2.8,1.4-5.1c0-2.2-0.4-3.9-1.4-5c-1-1.1-2.2-1.7-3.9-1.7c-1.7,0-3,0.6-4,1.7&#10;&#9;&#9;&#9;C789.9,589,789.5,590.6,789.5,593L789.5,593z M806.5,596.4l3.9-0.4c0.2,1.3,0.7,2.3,1.4,2.9c0.7,0.6,1.7,0.9,2.9,0.9&#10;&#9;&#9;&#9;c1.2,0,2.2-0.2,2.8-0.8c0.7-0.6,1-1.2,1-1.9c0-0.4-0.1-0.9-0.3-1.2c-0.3-0.3-0.8-0.6-1.4-0.9c-0.4-0.1-1.6-0.4-3.2-0.8&#10;&#9;&#9;&#9;c-2.1-0.6-3.6-1.2-4.4-2c-1.2-1-1.8-2.3-1.8-3.9c0-1,0.2-2,0.8-2.9c0.6-0.8,1.4-1.4,2.4-1.9c1.1-0.6,2.4-0.8,3.9-0.8&#10;&#9;&#9;&#9;c2.4,0,4.3,0.6,5.6,1.7c1.2,1.1,1.9,2.6,2,4.3l-4,0.2c-0.1-1.1-0.6-1.8-1.1-2.2c-0.6-0.4-1.3-0.7-2.4-0.7c-1.2,0-2.1,0.2-2.8,0.7&#10;&#9;&#9;&#9;c-0.3,0.3-0.6,0.8-0.6,1.2c0,0.4,0.1,0.9,0.6,1.2c0.6,0.4,1.7,0.9,3.7,1.3c1.9,0.4,3.3,0.9,4.2,1.4c1,0.4,1.7,1.1,2.2,2&#10;&#9;&#9;&#9;c0.6,0.8,0.8,1.9,0.8,3.1c0,1.1-0.3,2.1-0.9,3.1c-0.7,1-1.6,1.8-2.7,2.2c-1.2,0.4-2.6,0.7-4.3,0.7c-2.4,0-4.3-0.6-5.7-1.7&#10;&#9;&#9;&#9;C807.6,600.2,806.8,598.5,806.5,596.4L806.5,596.4z M830.3,602.8v-16.3h-5.9v-3.3h15.7v3.3h-5.9v16.3H830.3z" style="fill: rgb(65, 64, 66);" transform="matrix(1, 0, 0, 1, -694.2344284057617, -372.1291198730469)"/>
</svg>