<?xml version="1.0" encoding="utf-8"?>
<svg id="master-artboard" viewBox="0 0 192.10513305664062 238.18177795410156" version="1.1" xmlns="http://www.w3.org/2000/svg" x="0px" y="0px" style="enable-background:new 0 0 1400 980;" width="192.10513305664062px" height="238.18177795410156px"><rect id="ee-background" x="0" y="0" width="192.10513305664062" height="238.18177795410156" style="fill: white; fill-opacity: 0; pointer-events: none;"/>

<g transform="matrix(1, 0, 0, 1, -488.03826904296875, -86.62677001953125)">
			<path class="st11" d="M585,91.4c48.8,0,88.3,39.5,88.3,88.2c0,48.8-39.5,88.3-88.3,88.3c-48.7,0-88.2-39.5-88.2-88.3&#10;&#9;&#9;&#9;&#9;C496.8,130.9,536.2,91.4,585,91.4L585,91.4z" style="fill-rule: evenodd; clip-rule: evenodd; fill: rgb(86, 185, 71);"/>
			<path class="st12" d="M585,91.4c48.8,0,88.3,39.5,88.3,88.2c0,48.8-39.5,88.3-88.3,88.3V91.4z" style="fill-rule: evenodd; clip-rule: evenodd; fill: rgb(69, 159, 70);"/>
			<path class="st13" d="M581.2,117.6c-17.2,14-68.1,77.1-8.6,110.2c13.1,7.3,8.8,23.1,8.8,23.1c1.6,0.3,5.4,0.3,7,0&#10;&#9;&#9;&#9;&#9;c0,0-4.3-15.7,8.8-23.1c67.6-38.6,4.4-63.6-8.5-110.1C587.6,113.7,584.2,115.1,581.2,117.6L581.2,117.6z" style="fill-rule: evenodd; clip-rule: evenodd; fill: rgb(232, 232, 95);"/>
			<path class="st14" d="M585,251.1c1.3,0,2.7-0.1,3.4-0.2c0,0-4.3-15.7,8.8-23.1c67.6-38.6,4.4-63.6-8.5-110.1&#10;&#9;&#9;&#9;&#9;c-0.7-2.3-2.1-2.8-3.8-2.3V251.1z" style="fill-rule: evenodd; clip-rule: evenodd; fill: rgb(191, 211, 48);"/>
		</g><path class="st5" d="M548,310.2v-3.3h8.6v7.8c-0.9,0.9-2.1,1.6-3.7,2.1c-1.6,0.7-3.1,1-4.8,1c-2,0-3.9-0.4-5.3-1.3&#10;&#9;&#9;&#9;c-1.6-0.9-2.7-2.1-3.4-3.7c-0.8-1.7-1.2-3.3-1.2-5.2c0-2.1,0.4-3.9,1.3-5.4c0.9-1.7,2.1-2.9,3.8-3.7c1.2-0.7,2.8-1,4.7-1&#10;&#9;&#9;&#9;c2.4,0,4.3,0.4,5.8,1.6c1.3,1,2.2,2.4,2.6,4.2l-3.9,0.7c-0.3-0.9-0.8-1.7-1.6-2.2c-0.8-0.6-1.8-0.9-2.9-0.9&#10;&#9;&#9;&#9;c-1.7,0-3.1,0.6-4.1,1.7c-1,1.1-1.6,2.8-1.6,4.9c0,2.3,0.6,4.1,1.6,5.2c1,1.2,2.4,1.8,4.1,1.8c0.8,0,1.7-0.1,2.4-0.4&#10;&#9;&#9;&#9;c0.9-0.3,1.6-0.8,2.2-1.2v-2.4H548z M560.3,317.4v-19.7h8.3c2.1,0,3.6,0.1,4.6,0.6c1,0.3,1.7,0.9,2.3,1.9c0.6,0.9,0.8,1.9,0.8,3&#10;&#9;&#9;&#9;c0,1.6-0.4,2.8-1.2,3.7c-0.9,1-2.2,1.6-3.9,1.9c0.8,0.4,1.6,1,2.1,1.6c0.6,0.7,1.3,1.7,2.2,3.2l2.4,3.9h-4.8l-2.9-4.3&#10;&#9;&#9;&#9;c-1-1.6-1.7-2.4-2.1-2.9c-0.3-0.3-0.8-0.7-1.1-0.8c-0.4-0.2-1.1-0.2-2-0.2h-0.9v8.2H560.3z M564.2,306.1h3c1.9,0,3.1-0.1,3.6-0.3&#10;&#9;&#9;&#9;c0.4-0.1,0.9-0.3,1.1-0.8c0.2-0.4,0.4-0.9,0.4-1.4c0-0.7-0.2-1.2-0.6-1.7c-0.3-0.3-0.9-0.7-1.6-0.8c-0.3,0-1.2,0-2.9,0h-3.1V306.1&#10;&#9;&#9;&#9;z M597.7,317.4h-4.2l-1.8-4.6h-7.9l-1.6,4.6h-4.2l7.7-19.7h4.2L597.7,317.4z M590.5,309.6l-2.8-7.3l-2.7,7.3H590.5z M598.9,311&#10;&#9;&#9;&#9;l3.9-0.3c0.2,1.2,0.7,2.2,1.4,2.8c0.7,0.7,1.7,1,2.9,1c1.2,0,2.2-0.3,2.9-0.9c0.6-0.6,0.9-1.1,0.9-1.9c0-0.4-0.1-0.8-0.3-1.1&#10;&#9;&#9;&#9;c-0.3-0.3-0.8-0.7-1.4-0.9c-0.4-0.2-1.6-0.4-3.2-0.9c-2.1-0.6-3.6-1.1-4.4-1.9c-1.2-1.1-1.8-2.4-1.8-4c0-1,0.2-1.9,0.8-2.8&#10;&#9;&#9;&#9;c0.6-0.9,1.4-1.6,2.4-2c1.1-0.4,2.4-0.7,3.9-0.7c2.4,0,4.3,0.6,5.6,1.6c1.2,1.1,1.9,2.6,2,4.3l-4,0.2c-0.1-1-0.6-1.8-1.1-2.2&#10;&#9;&#9;&#9;c-0.6-0.4-1.3-0.7-2.4-0.7c-1.2,0-2.1,0.3-2.8,0.8c-0.3,0.2-0.6,0.7-0.6,1.2c0,0.4,0.2,0.9,0.6,1.1c0.6,0.4,1.7,0.9,3.7,1.3&#10;&#9;&#9;&#9;c1.9,0.4,3.3,1,4.2,1.4c1,0.4,1.7,1.1,2.2,2c0.6,0.9,0.8,1.9,0.8,3.1c0,1.1-0.3,2.2-0.9,3.2c-0.7,0.9-1.6,1.7-2.7,2.1&#10;&#9;&#9;&#9;c-1.2,0.6-2.6,0.8-4.3,0.8c-2.4,0-4.3-0.6-5.7-1.8C600,314.8,599.2,313.2,598.9,311L598.9,311z M617.2,311l3.9-0.3&#10;&#9;&#9;&#9;c0.2,1.2,0.7,2.2,1.3,2.8c0.8,0.7,1.7,1,2.9,1c1.3,0,2.2-0.3,2.9-0.9c0.7-0.6,1-1.1,1-1.9c0-0.4-0.1-0.8-0.4-1.1&#10;&#9;&#9;&#9;c-0.2-0.3-0.7-0.7-1.4-0.9c-0.4-0.2-1.4-0.4-3.1-0.9c-2.1-0.6-3.7-1.1-4.4-1.9c-1.2-1.1-1.9-2.4-1.9-4c0-1,0.3-1.9,0.9-2.8&#10;&#9;&#9;&#9;c0.6-0.9,1.3-1.6,2.4-2c1.1-0.4,2.3-0.7,3.9-0.7c2.4,0,4.3,0.6,5.6,1.6c1.2,1.1,1.9,2.6,2,4.3l-4,0.2c-0.2-1-0.6-1.8-1.1-2.2&#10;&#9;&#9;&#9;c-0.6-0.4-1.3-0.7-2.6-0.7c-1.1,0-2,0.3-2.7,0.8c-0.4,0.2-0.7,0.7-0.7,1.2c0,0.4,0.2,0.9,0.7,1.1c0.4,0.4,1.7,0.9,3.7,1.3&#10;&#9;&#9;&#9;c1.9,0.4,3.3,1,4.2,1.4c0.9,0.4,1.7,1.1,2.2,2c0.4,0.9,0.8,1.9,0.8,3.1c0,1.1-0.3,2.2-1,3.2c-0.6,0.9-1.4,1.7-2.7,2.1&#10;&#9;&#9;&#9;c-1.1,0.6-2.6,0.8-4.2,0.8c-2.4,0-4.4-0.6-5.8-1.8C618.2,314.8,617.4,313.2,617.2,311L617.2,311z" style="fill: rgb(65, 64, 66);" transform="matrix(1, 0, 0, 1, -488.03826904296875, -86.62677001953125)"/>
</svg>