<?xml version="1.0" encoding="utf-8"?>
<svg id="master-artboard" viewBox="0 0 192.10513305664062 238.18177795410156" version="1.1" xmlns="http://www.w3.org/2000/svg" x="0px" y="0px" style="enable-background:new 0 0 1400 980;" width="192.10513305664062px" height="238.18177795410156px"><rect id="ee-background" x="0" y="0" width="192.10513305664062" height="238.18177795410156" style="fill: white; fill-opacity: 0; pointer-events: none;"/>

<g transform="matrix(1, 0, 0, 1, -696.6746368408203, -87.8468017578125)">
			<path class="st15" d="M791.1,91.4c48.7,0,88.2,39.5,88.2,88.2c0,48.8-39.5,88.3-88.2,88.3c-48.7,0-88.3-39.5-88.3-88.3&#10;&#9;&#9;&#9;&#9;C702.8,130.9,742.4,91.4,791.1,91.4L791.1,91.4z" style="fill-rule: evenodd; clip-rule: evenodd; fill: rgb(120, 66, 27);"/>
			<path class="st16" d="M791.1,91.4c48.7,0,88.2,39.5,88.2,88.2c0,48.8-39.5,88.3-88.2,88.3V91.4z" style="fill-rule: evenodd; clip-rule: evenodd; fill: rgb(91, 53, 19);"/>
			<path class="st17" d="M746.9,186.4c15.8-0.2,28.7,15,22.7,29.9c-4.8,11.9-17.7,14-28,7.3c-10.8-6.8-21-20.2-9-31.6&#10;&#9;&#9;&#9;&#9;C736.4,188.5,741.5,186.6,746.9,186.4L746.9,186.4z M812.5,114.4c19.6,0,17.9,32-3,30.8c-19.5-1.2-18.5-27.9,0.2-30.7&#10;&#9;&#9;&#9;&#9;C810.6,114.4,811.5,114.3,812.5,114.4L812.5,114.4z M758,119.4c26.4,1.1,23.4,40.3-1.2,41.5c-13,0.7-23.9-8.9-21.8-22.8&#10;&#9;&#9;&#9;&#9;C736.6,127.2,747,119,758,119.4L758,119.4z M847.2,156.7c13.5-0.1,17.8,12.6,14.1,23.7c-2.7,8-9.1,17.9-15.7,23.2&#10;&#9;&#9;&#9;&#9;c-7.6,6.1-16.6-0.1-19.1-8.6C822.2,180.8,829.7,156.5,847.2,156.7L847.2,156.7z M809.5,206.1c12.8-0.3,22.8,13.2,22.6,25.7&#10;&#9;&#9;&#9;&#9;c-0.2,11.3-8.7,22.2-20.5,22.1c-10-0.1-16.3-7.8-15.8-17.5c0.2-4.2,1.6-9,2-13.5C798.8,215.1,798.9,205.9,809.5,206.1&#10;&#9;&#9;&#9;&#9;L809.5,206.1z M794.6,156.4c18.8,0.1,25.1,24.7,12.5,37.5c-14.2,14.5-38-0.2-33.3-20.7C776.1,163.6,784.7,156.1,794.6,156.4&#10;&#9;&#9;&#9;&#9;L794.6,156.4z" style="fill-rule: evenodd; clip-rule: evenodd; fill: rgb(181, 100, 40);"/>
			<path class="st18" d="M791.1,199.5v-42.9c1.1-0.1,2.2-0.2,3.4-0.2c18.8,0.1,25.1,24.7,12.5,37.5&#10;&#9;&#9;&#9;&#9;C802.4,198.6,796.6,200.2,791.1,199.5L791.1,199.5z M812.5,114.4c19.6,0,17.9,32-3,30.8c-19.5-1.2-18.5-27.9,0.2-30.7&#10;&#9;&#9;&#9;&#9;C810.6,114.4,811.5,114.3,812.5,114.4L812.5,114.4z M847.2,156.7c13.5-0.1,17.8,12.6,14.1,23.7c-2.7,8-9.1,17.9-15.7,23.2&#10;&#9;&#9;&#9;&#9;c-7.6,6.1-16.6-0.1-19.1-8.6C822.2,180.8,829.7,156.5,847.2,156.7L847.2,156.7z M809.5,206.1c12.8-0.3,22.8,13.2,22.6,25.7&#10;&#9;&#9;&#9;&#9;c-0.2,11.3-8.7,22.2-20.5,22.1c-10-0.1-16.3-7.8-15.8-17.5c0.2-4.2,1.6-9,2-13.5C798.8,215.1,798.9,205.9,809.5,206.1&#10;&#9;&#9;&#9;&#9;L809.5,206.1z" style="fill-rule: evenodd; clip-rule: evenodd; fill: rgb(145, 80, 34);"/>
		</g><path class="st5" d="M741.9,310.2v-3.3h8.6v7.8c-0.8,0.9-2,1.6-3.6,2.1c-1.6,0.7-3.2,1-4.8,1c-2.1,0-3.9-0.4-5.4-1.3&#10;&#9;&#9;&#9;c-1.4-0.9-2.7-2.1-3.4-3.7c-0.8-1.7-1.1-3.3-1.1-5.2c0-2.1,0.4-3.9,1.2-5.4c0.9-1.7,2.1-2.9,3.8-3.7c1.3-0.7,2.9-1,4.8-1&#10;&#9;&#9;&#9;c2.4,0,4.3,0.4,5.7,1.6c1.3,1,2.2,2.4,2.7,4.2l-4,0.7c-0.2-0.9-0.8-1.7-1.6-2.2c-0.7-0.6-1.7-0.9-2.8-0.9c-1.8,0-3.1,0.6-4.2,1.7&#10;&#9;&#9;&#9;c-1,1.1-1.4,2.8-1.4,4.9c0,2.3,0.4,4.1,1.6,5.2c1,1.2,2.3,1.8,4,1.8c0.9,0,1.7-0.1,2.6-0.4c0.8-0.3,1.6-0.8,2.1-1.2v-2.4H741.9z&#10;&#9;&#9;&#9; M754.1,317.4v-19.7h8.3c2.1,0,3.7,0.1,4.7,0.6c0.9,0.3,1.7,0.9,2.2,1.9c0.6,0.9,0.9,1.9,0.9,3c0,1.6-0.4,2.8-1.3,3.7&#10;&#9;&#9;&#9;c-0.9,1-2.1,1.6-3.9,1.9c0.9,0.4,1.6,1,2.1,1.6c0.6,0.7,1.3,1.7,2.3,3.2l2.3,3.9h-4.7l-2.9-4.3c-1-1.6-1.8-2.4-2.1-2.9&#10;&#9;&#9;&#9;c-0.3-0.3-0.8-0.7-1.2-0.8c-0.4-0.2-1.1-0.2-2-0.2h-0.8v8.2H754.1z M758.1,306.1h2.9c1.9,0,3.1-0.1,3.6-0.3&#10;&#9;&#9;&#9;c0.6-0.1,0.9-0.3,1.1-0.8c0.3-0.4,0.4-0.9,0.4-1.4c0-0.7-0.2-1.2-0.6-1.7c-0.3-0.3-0.8-0.7-1.4-0.8c-0.3,0-1.3,0-2.9,0h-3.1V306.1&#10;&#9;&#9;&#9;z M773.1,307.6c0-2,0.3-3.7,0.9-5c0.4-1,1.1-1.9,1.9-2.7s1.6-1.4,2.6-1.8c1.2-0.6,2.6-0.8,4.2-0.8c2.9,0,5.2,0.9,6.9,2.7&#10;&#9;&#9;&#9;c1.8,1.8,2.7,4.3,2.7,7.5c0,3.2-0.9,5.7-2.7,7.5c-1.7,1.9-4,2.8-6.9,2.8c-2.9,0-5.2-0.9-7-2.7C774,313.3,773.1,310.7,773.1,307.6&#10;&#9;&#9;&#9;L773.1,307.6z M777.2,307.5c0,2.2,0.6,3.9,1.6,5.1c1,1.1,2.3,1.7,3.9,1.7c1.6,0,2.9-0.6,3.9-1.7c1-1.2,1.6-2.9,1.6-5.1&#10;&#9;&#9;&#9;c0-2.3-0.6-4-1.6-5.1c-0.9-1.1-2.2-1.7-3.9-1.7s-2.9,0.6-4,1.7C777.8,303.6,777.2,305.3,777.2,307.5L777.2,307.5z M795.3,297.7h4&#10;&#9;&#9;&#9;v10.7c0,1.7,0,2.8,0.1,3.2c0.2,0.8,0.6,1.4,1.2,2c0.7,0.4,1.6,0.7,2.7,0.7s2-0.2,2.6-0.7c0.6-0.4,0.9-1,1-1.7&#10;&#9;&#9;&#9;c0.1-0.7,0.2-1.8,0.2-3.3v-10.9h3.9v10.3c0,2.3-0.1,4-0.3,5c-0.2,0.9-0.6,1.8-1.1,2.4c-0.6,0.7-1.3,1.2-2.3,1.6&#10;&#9;&#9;&#9;c-1,0.4-2.2,0.7-3.8,0.7c-1.9,0-3.3-0.2-4.3-0.7c-0.9-0.4-1.7-1-2.2-1.7c-0.6-0.8-1-1.4-1.1-2.2c-0.3-1.1-0.4-2.8-0.4-5V297.7z&#10;&#9;&#9;&#9; M815.2,317.4v-19.7h3.9l8,13.1v-13.1h3.7v19.7h-3.9l-8-12.9v12.9H815.2z M835,297.7h7.2c1.7,0,2.9,0.1,3.8,0.3&#10;&#9;&#9;&#9;c1.1,0.3,2.1,1,3,1.9c0.8,0.8,1.4,1.9,1.8,3.1c0.4,1.2,0.7,2.8,0.7,4.7c0,1.6-0.2,3-0.6,4.2c-0.6,1.3-1.2,2.6-2.1,3.4&#10;&#9;&#9;&#9;c-0.7,0.7-1.7,1.2-2.8,1.6c-0.9,0.2-2.1,0.4-3.6,0.4H835V297.7z M839,301.1v13h2.9c1.1,0,2-0.1,2.4-0.2c0.7-0.1,1.2-0.4,1.6-0.8&#10;&#9;&#9;&#9;c0.4-0.4,0.8-1,1.1-1.9c0.2-0.9,0.3-2.1,0.3-3.7c0-1.4-0.1-2.7-0.3-3.4c-0.3-0.8-0.7-1.4-1.1-1.9c-0.6-0.4-1.1-0.8-1.9-1&#10;&#9;&#9;&#9;c-0.6-0.1-1.7-0.1-3.2-0.1H839z" style="fill: rgb(65, 64, 66);" transform="matrix(1, 0, 0, 1, -696.6746368408203, -87.8468017578125)"/>
</svg>