<?xml version="1.0" encoding="utf-8"?>
<svg id="master-artboard" viewBox="0 0 192.10513305664062 238.18177795410156" version="1.1" xmlns="http://www.w3.org/2000/svg" x="0px" y="0px" style="enable-background:new 0 0 1400 980;" width="192.10513305664062px" height="238.18177795410156px"><rect id="ee-background" x="0" y="0" width="192.10513305664062" height="238.18177795410156" style="fill: white; fill-opacity: 0; pointer-events: none;"/>

<g transform="matrix(1, 0, 0, 1, -74.42585754394531, -373.3493347167969)">
			<path class="st3" d="M172.7,376.9c48.8,0,88.3,39.5,88.3,88.2s-39.5,88.2-88.3,88.2c-48.7,0-88.2-39.5-88.2-88.2&#10;&#9;&#9;&#9;&#9;S124,376.9,172.7,376.9L172.7,376.9z" style="fill-rule: evenodd; clip-rule: evenodd; fill: rgb(101, 205, 246);"/>
			<path class="st0" d="M172.7,376.9c48.8,0,88.3,39.5,88.3,88.2s-39.5,88.2-88.3,88.2V376.9z" style="fill-rule: evenodd; clip-rule: evenodd; fill: rgb(31, 175, 223);"/>
			<path class="st4" d="M172.5,401.3L172.5,401.3c2.9,0,5.3,2.4,5.3,5.4v5.3l1.8-1.8c2.1-2.1,5.6-2.1,7.7,0l0,0c2,2.1,2,5.6,0,7.7&#10;&#9;&#9;&#9;&#9;l-9.5,9.3v28.6l25.1-14.5l3.4-12.8c0.8-2.9,3.8-4.7,6.6-3.9l0,0c2.9,0.8,4.7,3.8,3.9,6.7l-0.7,2.3l4.7-2.7c2.6-1.6,5.9-0.7,7.3,2&#10;&#9;&#9;&#9;&#9;l0,0c1.6,2.6,0.7,5.9-1.9,7.3l-4.7,2.7l2.3,0.7c2.9,0.8,4.6,3.8,3.8,6.6l0,0c-0.8,2.9-3.7,4.7-6.6,3.9l-12.8-3.4l-24.5,14.1&#10;&#9;&#9;&#9;&#9;l24,13.9l12.8-3.4c2.9-0.8,5.9,1,6.7,3.9l0,0c0.8,2.8-1,5.8-3.8,6.6l-2.4,0.7l4.7,2.7c2.6,1.4,3.4,4.8,2,7.3l0,0&#10;&#9;&#9;&#9;&#9;c-1.4,2.7-4.8,3.6-7.5,2l-4.6-2.7l0.6,2.3c0.8,2.9-0.9,5.9-3.8,6.7l0,0c-2.9,0.8-5.9-1-6.7-3.9l-3.3-12.8l-24.8-14.2v29l9.5,9.3&#10;&#9;&#9;&#9;&#9;c2,2.1,2,5.6,0,7.7l0,0c-2.1,2.1-5.6,2.1-7.7,0l-1.8-1.8v5.3c0,3-2.4,5.4-5.3,5.4l0,0c-3,0-5.4-2.4-5.4-5.4v-5.3l-1.8,1.8&#10;&#9;&#9;&#9;&#9;c-2,2.1-5.4,2.1-7.6,0l0,0c-2.1-2.1-2.1-5.6,0-7.7l9.3-9.3v-28.2l-24.1,13.9l-3.3,12.8c-0.8,2.9-3.8,4.6-6.7,3.8l0,0&#10;&#9;&#9;&#9;&#9;c-2.9-0.8-4.6-3.8-3.8-6.6l0.6-2.4l-4.7,2.8c-2.6,1.4-5.9,0.6-7.3-2l0,0c-1.4-2.6-0.6-5.9,2-7.5l4.6-2.7l-2.3-0.6&#10;&#9;&#9;&#9;&#9;c-2.8-0.8-4.6-3.8-3.8-6.7l0,0c0.8-2.9,3.8-4.6,6.7-3.9l12.8,3.4l24.7-14.2l-25.1-14.5l-12.8,3.4c-2.9,0.7-5.9-1-6.6-3.9l0,0&#10;&#9;&#9;&#9;&#9;c-0.8-2.9,0.9-5.9,3.8-6.7l2.3-0.6l-4.7-2.7c-2.6-1.6-3.4-4.9-1.9-7.5l0,0c1.4-2.6,4.8-3.4,7.3-2l4.7,2.7l-0.7-2.3&#10;&#9;&#9;&#9;&#9;c-0.8-2.8,1-5.8,3.8-6.6l0,0c2.9-0.8,5.9,0.9,6.7,3.8l3.4,12.8l24.5,14.1v-27.8l-9.3-9.3c-2.1-2.1-2.1-5.6,0-7.7l0,0&#10;&#9;&#9;&#9;&#9;c2.1-2.1,5.6-2.1,7.6,0l1.8,1.8v-5.3C167,403.7,169.5,401.3,172.5,401.3L172.5,401.3z" style="fill-rule: evenodd; clip-rule: evenodd; fill: rgb(255, 255, 255);"/>
			<path class="st2" d="M172.7,401.3c2.9,0.1,5.1,2.6,5.1,5.4v5.3l1.8-1.8c2.1-2.1,5.6-2.1,7.7,0l0,0c2,2.1,2,5.6,0,7.7l-9.5,9.3&#10;&#9;&#9;&#9;&#9;v28.6l25.1-14.5l3.4-12.8c0.8-2.9,3.8-4.7,6.6-3.9l0,0c2.9,0.8,4.7,3.8,3.9,6.7l-0.7,2.3l4.7-2.7c2.6-1.6,5.9-0.7,7.3,2l0,0&#10;&#9;&#9;&#9;&#9;c1.6,2.6,0.7,5.9-1.9,7.3l-4.7,2.7l2.3,0.7c2.9,0.8,4.6,3.8,3.8,6.6l0,0c-0.8,2.9-3.7,4.7-6.6,3.9l-12.8-3.4l-24.5,14.1l24,13.9&#10;&#9;&#9;&#9;&#9;l12.8-3.4c2.9-0.8,5.9,1,6.7,3.9l0,0c0.8,2.8-1,5.8-3.8,6.6l-2.4,0.7l4.7,2.7c2.6,1.4,3.4,4.8,2,7.3l0,0c-1.4,2.7-4.8,3.6-7.5,2&#10;&#9;&#9;&#9;&#9;l-4.6-2.7l0.6,2.3c0.8,2.9-0.9,5.9-3.8,6.7l0,0c-2.9,0.8-5.9-1-6.7-3.9l-3.3-12.8l-24.8-14.2v29l9.5,9.3c2,2.1,2,5.6,0,7.7l0,0&#10;&#9;&#9;&#9;&#9;c-2.1,2.1-5.6,2.1-7.7,0l-1.8-1.8v5.3c0,2.9-2.2,5.3-5.1,5.4V401.3z" style="fill-rule: evenodd; clip-rule: evenodd; fill: rgb(201, 235, 249);"/>
		</g><path class="st5" d="M151.8,602.8v-19.7h4v19.7H151.8z M172.1,595.5l3.9,1.2c-0.7,2.1-1.7,3.8-3,4.8c-1.3,1-3.1,1.6-5.2,1.6&#10;&#9;&#9;&#9;c-2.6,0-4.8-0.9-6.5-2.7c-1.7-1.8-2.4-4.2-2.4-7.3c0-3.2,0.8-5.8,2.4-7.6c1.8-1.8,4-2.8,6.7-2.8c2.4,0,4.3,0.8,5.9,2.2&#10;&#9;&#9;&#9;c0.9,0.8,1.6,2,2,3.6l-3.9,1c-0.2-1.1-0.8-1.9-1.4-2.4c-0.8-0.6-1.7-0.9-2.8-0.9c-1.4,0-2.6,0.6-3.4,1.6c-1,1-1.4,2.8-1.4,5.1&#10;&#9;&#9;&#9;c0,2.4,0.4,4.2,1.3,5.2c0.9,1.1,2.1,1.7,3.6,1.7c1,0,1.9-0.3,2.7-1C171.2,598.1,171.8,597,172.1,595.5L172.1,595.5z M179.4,602.8&#10;&#9;&#9;&#9;v-19.7h14.6v3.3h-10.6v4.4h9.9v3.2h-9.9v5.3h11v3.3H179.4z" style="fill: rgb(65, 64, 66);" transform="matrix(1, 0, 0, 1, -74.42585754394531, -373.3493347167969)"/>
</svg>