<?xml version="1.0" encoding="utf-8"?>
<svg id="master-artboard" viewBox="0 0 192.10513305664062 238.18177795410156" version="1.1" xmlns="http://www.w3.org/2000/svg" x="0px" y="0px" style="enable-background:new 0 0 1400 980;" width="192.10513305664062px" height="238.18177795410156px"><rect id="ee-background" x="0" y="0" width="192.10513305664062" height="238.18177795410156" style="fill: white; fill-opacity: 0; pointer-events: none;"/>

<g transform="matrix(1, 0, 0, 1, -1128.5885009765625, -372.1289978027344)">
			<path class="st10" d="M1227.2,376.9c48.7,0,88.3,39.5,88.3,88.2s-39.6,88.2-88.3,88.2s-88.2-39.5-88.2-88.2&#10;&#9;&#9;&#9;&#9;S1178.5,376.9,1227.2,376.9L1227.2,376.9z" style="fill-rule: evenodd; clip-rule: evenodd; fill: rgb(243, 184, 26);"/>
			<path class="st6" d="M1227.2,376.9c48.7,0,88.3,39.5,88.3,88.2s-39.6,88.2-88.3,88.2V376.9z" style="fill-rule: evenodd; clip-rule: evenodd; fill: rgb(244, 139, 32);"/>
			<path class="st17" d="M1227.2,402.9c25.1,0,45.5,39.9,45.5,74.2c0,66.8-91,66.8-91,0C1181.7,442.8,1202.1,402.9,1227.2,402.9&#10;&#9;&#9;&#9;&#9;L1227.2,402.9z" style="fill-rule: evenodd; clip-rule: evenodd; fill: rgb(181, 100, 40);"/>
			<path class="st18" d="M1227.2,402.9c25.1,0,45.5,39.9,45.5,74.2c0,33.4-22.7,50.2-45.5,50.2V402.9z" style="fill-rule: evenodd; clip-rule: evenodd; fill: rgb(145, 80, 34);"/>
		</g><path class="st5" d="M1169.7,602.8v-19.7h3.9l8,13.1v-13.1h3.7v19.7h-4l-7.9-12.8v12.8H1169.7z M1188.7,593.1c0-2,0.2-3.7,0.9-5&#10;&#9;&#9;&#9;c0.4-1,1-2,1.8-2.8c0.8-0.8,1.7-1.3,2.6-1.8c1.2-0.4,2.7-0.8,4.2-0.8c2.9,0,5.2,0.9,7,2.8c1.7,1.8,2.6,4.2,2.6,7.5&#10;&#9;&#9;&#9;c0,3.2-0.9,5.7-2.6,7.5c-1.8,1.8-4,2.7-6.9,2.7c-3,0-5.3-0.9-7-2.7C1189.5,598.7,1188.7,596.2,1188.7,593.1L1188.7,593.1z&#10;&#9;&#9;&#9; M1192.7,593c0,2.2,0.6,3.9,1.6,5c1.1,1.2,2.3,1.8,4,1.8c1.6,0,2.8-0.6,3.9-1.8c1-1.1,1.4-2.8,1.4-5.1c0-2.2-0.4-3.9-1.4-5&#10;&#9;&#9;&#9;c-1-1.1-2.3-1.7-3.9-1.7c-1.7,0-3,0.6-4,1.7C1193.3,589,1192.7,590.6,1192.7,593L1192.7,593z M1210.8,602.8v-19.7h8.3&#10;&#9;&#9;&#9;c2.1,0,3.7,0.2,4.6,0.6c1,0.3,1.8,1,2.3,1.9c0.6,0.9,0.9,2,0.9,3.1c0,1.4-0.4,2.7-1.3,3.7c-0.9,0.9-2.1,1.6-3.9,1.8&#10;&#9;&#9;&#9;c0.9,0.6,1.6,1.1,2.1,1.7c0.6,0.6,1.3,1.7,2.2,3.2l2.4,3.8h-4.8l-2.8-4.2c-1.1-1.6-1.8-2.6-2.1-2.9c-0.4-0.4-0.8-0.7-1.2-0.9&#10;&#9;&#9;&#9;c-0.4-0.1-1.1-0.2-2-0.2h-0.8v8.2H1210.8z M1214.8,591.4h2.9c1.9,0,3.1-0.1,3.6-0.2c0.6-0.1,0.9-0.4,1.1-0.8&#10;&#9;&#9;&#9;c0.3-0.4,0.4-0.9,0.4-1.6c0-0.7-0.2-1.1-0.6-1.6c-0.3-0.4-0.8-0.7-1.4-0.8c-0.3,0-1.3-0.1-2.9-0.1h-3.1V591.4z M1230.6,602.8&#10;&#9;&#9;&#9;v-19.7h5.9l3.6,13.5l3.6-13.5h6v19.7h-3.8v-15.5l-3.9,15.5h-3.8l-3.9-15.5v15.5H1230.6z M1271.2,602.8h-4.2l-1.8-4.4h-7.9&#10;&#9;&#9;&#9;l-1.6,4.4h-4.2l7.7-19.7h4.2L1271.2,602.8z M1264,595l-2.8-7.2l-2.7,7.2H1264z M1273.5,602.8v-19.5h4v16.1h9.9v3.3H1273.5z" style="fill: rgb(65, 64, 66);" transform="matrix(1, 0, 0, 1, -1128.5885009765625, -372.1289978027344)"/>
</svg>