<?xml version="1.0" encoding="utf-8"?>
<svg id="master-artboard" viewBox="0 0 192.10513305664062 238.18177795410156" version="1.1" xmlns="http://www.w3.org/2000/svg" x="0px" y="0px" style="enable-background:new 0 0 1400 980;" width="192.10513305664062px" height="238.18177795410156px"><rect id="ee-background" x="0" y="0" width="192.10513305664062" height="238.18177795410156" style="fill: white; fill-opacity: 0; pointer-events: none;"/>

<g transform="matrix(1, 0, 0, 1, -279.40191650390625, -657.6316223144531)">
			<path class="st8" d="M375.4,662.3c48.8,0,88.3,39.5,88.3,88.3c0,48.7-39.5,88.2-88.3,88.2c-48.7,0-88.2-39.5-88.2-88.2&#10;&#9;&#9;&#9;&#9;C287.2,701.7,326.7,662.3,375.4,662.3L375.4,662.3z" style="fill-rule: evenodd; clip-rule: evenodd; fill: rgb(185, 32, 37);"/>
			<path class="st9" d="M375.4,662.3c48.8,0,88.3,39.5,88.3,88.3c0,48.7-39.5,88.2-88.3,88.2V662.3z" style="fill-rule: evenodd; clip-rule: evenodd; fill: rgb(143, 25, 28);"/>
			<path class="st4" d="M375.4,690.3c21.4,0,38.6,17.3,38.6,38.6c0,12.5-5.9,23.6-15.1,30.6c-5.7,21.6-41.1,21.6-46.9,0&#10;&#9;&#9;&#9;&#9;c-9.1-7-15-18.1-15-30.6C337,707.6,354.2,690.3,375.4,690.3L375.4,690.3z M430.3,777.3L430.3,777.3c0.8,2.9-1,6-3.9,6.8&#10;&#9;&#9;&#9;&#9;l-29.5,7.9l29.5,7.9c2.9,0.8,4.7,3.8,3.9,6.8l0,0c-0.8,2.9-3.9,4.7-6.8,3.9l-48-12.9l-47.9,12.9c-3,0.8-6-1-6.8-3.9l0,0&#10;&#9;&#9;&#9;&#9;c-0.8-3,1-6,3.9-6.8l29.5-7.9l-29.5-7.9c-2.9-0.8-4.7-3.9-3.9-6.8l0,0c0.8-3,3.8-4.8,6.8-3.9l47.9,12.8l48-12.8&#10;&#9;&#9;&#9;&#9;C426.4,772.5,429.5,774.3,430.3,777.3L430.3,777.3z M361.5,713.6c4.4,0,8.1,6.3,8.1,14c0,7.8-3.7,14-8.1,14&#10;&#9;&#9;&#9;&#9;c-4.6,0-8.1-6.2-8.1-14C353.4,720,357,713.6,361.5,713.6L361.5,713.6z M389.4,713.6c4.6,0,8.1,6.3,8.1,14c0,7.8-3.6,14-8.1,14&#10;&#9;&#9;&#9;&#9;c-4.4,0-8.1-6.2-8.1-14C381.3,720,385,713.6,389.4,713.6L389.4,713.6z M371.1,746.1c0.9,0,1.7,1.2,1.7,2.8s-0.8,2.9-1.7,2.9&#10;&#9;&#9;&#9;&#9;c-0.9,0-1.7-1.3-1.7-2.9S370.2,746.1,371.1,746.1L371.1,746.1z M379.9,746.1c0.9,0,1.7,1.2,1.7,2.8s-0.8,2.9-1.7,2.9&#10;&#9;&#9;&#9;&#9;c-1,0-1.7-1.3-1.7-2.9S378.9,746.1,379.9,746.1L379.9,746.1z" style="fill-rule: evenodd; clip-rule: evenodd; fill: rgb(255, 255, 255);"/>
			<path class="st27" d="M375.4,690.3c21.4,0,38.6,17.3,38.6,38.6c0,12.5-5.9,23.6-15.1,30.6c-2.8,10.8-13.1,16.1-23.5,16.1V690.3z&#10;&#9;&#9;&#9;&#9; M375.4,797.6v-11.5l48-12.8c2.9-0.9,6,0.9,6.8,3.9l0,0c0.8,2.9-1,6-3.9,6.8l-29.5,7.9l29.5,7.9c2.9,0.8,4.7,3.8,3.9,6.8l0,0&#10;&#9;&#9;&#9;&#9;c-0.8,2.9-3.9,4.7-6.8,3.9L375.4,797.6z M389.4,713.6c4.6,0,8.1,6.3,8.1,14c0,7.8-3.6,14-8.1,14c-4.4,0-8.1-6.2-8.1-14&#10;&#9;&#9;&#9;&#9;C381.3,720,385,713.6,389.4,713.6L389.4,713.6z M379.9,746.1c0.9,0,1.7,1.2,1.7,2.8s-0.8,2.9-1.7,2.9c-1,0-1.7-1.3-1.7-2.9&#10;&#9;&#9;&#9;&#9;S378.9,746.1,379.9,746.1L379.9,746.1z" style="fill-rule: evenodd; clip-rule: evenodd; fill: rgb(229, 230, 231);"/>
		</g><path class="st5" d="M324.7,888.2v-19.7h6.5c2.3,0,3.9,0.1,4.7,0.3c1.1,0.2,2.1,0.9,2.8,1.9c0.8,1,1.2,2.2,1.2,3.8&#10;&#9;&#9;&#9;c0,1.2-0.2,2.2-0.7,3.1c-0.4,0.8-1,1.4-1.7,1.9c-0.7,0.4-1.3,0.8-2.1,0.9c-0.9,0.2-2.3,0.3-4.1,0.3h-2.6v7.5H324.7z M328.7,871.9&#10;&#9;&#9;&#9;v5.6h2.1c1.7,0,2.7-0.1,3.2-0.3c0.4-0.2,0.9-0.4,1.2-0.9c0.3-0.4,0.4-1,0.4-1.6c0-0.8-0.2-1.3-0.7-1.8c-0.4-0.4-0.9-0.8-1.6-0.9&#10;&#9;&#9;&#9;c-0.4-0.1-1.4-0.1-2.9-0.1H328.7z M342.3,878.5c0-2,0.2-3.7,0.9-5c0.4-1,1-1.9,1.8-2.7c0.8-0.8,1.7-1.4,2.6-1.8&#10;&#9;&#9;&#9;c1.2-0.6,2.7-0.8,4.2-0.8c2.9,0,5.2,0.9,7,2.7c1.7,1.8,2.6,4.3,2.6,7.6c0,3.1-0.9,5.6-2.6,7.5c-1.8,1.8-4,2.7-6.9,2.7&#10;&#9;&#9;&#9;c-3,0-5.2-0.9-7-2.7C343.1,884.1,342.3,881.7,342.3,878.5L342.3,878.5z M346.4,878.3c0,2.2,0.4,3.9,1.4,5.1c1.1,1.1,2.3,1.7,4,1.7&#10;&#9;&#9;&#9;c1.6,0,2.8-0.6,3.9-1.7c1-1.1,1.4-2.9,1.4-5.1c0-2.3-0.4-4-1.4-5.1c-1-1.1-2.3-1.7-3.9-1.7c-1.7,0-3,0.7-4,1.8&#10;&#9;&#9;&#9;C346.9,874.5,346.4,876.1,346.4,878.3L346.4,878.3z M364.3,888.2v-19.7h4v19.7H364.3z M371.1,881.8l3.8-0.3&#10;&#9;&#9;&#9;c0.2,1.3,0.8,2.2,1.4,2.9c0.7,0.6,1.7,0.9,2.9,0.9c1.2,0,2.2-0.3,2.9-0.9c0.7-0.4,1-1.1,1-1.9c0-0.4-0.2-0.8-0.4-1.1&#10;&#9;&#9;&#9;c-0.2-0.3-0.8-0.7-1.4-0.9c-0.4-0.1-1.6-0.4-3.1-0.9c-2.2-0.4-3.7-1.1-4.6-1.9c-1.2-1.1-1.8-2.4-1.8-4c0-1,0.3-1.9,0.9-2.8&#10;&#9;&#9;&#9;c0.6-0.9,1.3-1.6,2.4-2c1-0.4,2.3-0.7,3.9-0.7c2.4,0,4.2,0.6,5.6,1.7c1.2,1,1.9,2.4,1.9,4.2l-3.9,0.2c-0.2-1-0.6-1.8-1.1-2.2&#10;&#9;&#9;&#9;c-0.6-0.4-1.4-0.6-2.6-0.6c-1.1,0-2,0.2-2.7,0.7c-0.4,0.3-0.7,0.7-0.7,1.2c0,0.4,0.2,0.9,0.6,1.2c0.6,0.3,1.8,0.8,3.7,1.2&#10;&#9;&#9;&#9;c2,0.4,3.3,1,4.3,1.4c0.9,0.6,1.7,1.1,2.1,2c0.6,0.9,0.8,1.9,0.8,3.1c0,1.1-0.2,2.2-0.9,3.2c-0.7,1-1.6,1.7-2.7,2.1&#10;&#9;&#9;&#9;c-1.1,0.6-2.6,0.8-4.2,0.8c-2.6,0-4.4-0.6-5.8-1.8C372.1,885.7,371.3,884,371.1,881.8L371.1,881.8z M389.6,878.5&#10;&#9;&#9;&#9;c0-2,0.3-3.7,0.9-5c0.4-1,1.1-1.9,1.9-2.7s1.6-1.4,2.6-1.8c1.2-0.6,2.6-0.8,4.2-0.8c2.9,0,5.2,0.9,6.9,2.7&#10;&#9;&#9;&#9;c1.8,1.8,2.7,4.3,2.7,7.6c0,3.1-0.9,5.6-2.7,7.5c-1.7,1.8-4,2.7-6.9,2.7c-2.9,0-5.2-0.9-7-2.7&#10;&#9;&#9;&#9;C390.4,884.1,389.6,881.7,389.6,878.5L389.6,878.5z M393.7,878.3c0,2.2,0.6,3.9,1.6,5.1c1,1.1,2.3,1.7,3.9,1.7&#10;&#9;&#9;&#9;c1.6,0,2.9-0.6,3.9-1.7c1-1.1,1.6-2.9,1.6-5.1c0-2.3-0.6-4-1.6-5.1c-0.9-1.1-2.2-1.7-3.9-1.7c-1.7,0-3,0.7-4,1.8&#10;&#9;&#9;&#9;C394.1,874.5,393.7,876.1,393.7,878.3L393.7,878.3z M411.8,888.2v-19.7h3.9l8,13.1v-13.1h3.7v19.7h-4l-7.9-12.9v12.9H411.8z" style="fill: rgb(65, 64, 66);" transform="matrix(1, 0, 0, 1, -279.40191650390625, -657.6316223144531)"/>
</svg>