<?xml version="1.0" encoding="utf-8"?>
<svg id="master-artboard" viewBox="0 0 192.10513305664062 238.18177795410156" version="1.1" xmlns="http://www.w3.org/2000/svg" x="0px" y="0px" style="enable-background:new 0 0 1400 980;" width="192.10513305664062px" height="238.18177795410156px"><rect id="ee-background" x="0" y="0" width="192.10513305664062" height="238.18177795410156" style="fill: white; fill-opacity: 0; pointer-events: none;"/>

<g transform="matrix(1, 0, 0, 1, -912.6315841674805, -372.1290283203125)">
			<path class="st28" d="M1009.2,376.9c48.7,0,88.2,39.5,88.2,88.2s-39.5,88.2-88.2,88.2c-48.8,0-88.3-39.5-88.3-88.2&#10;&#9;&#9;&#9;&#9;S960.4,376.9,1009.2,376.9L1009.2,376.9z" style="fill-rule: evenodd; clip-rule: evenodd; fill: rgb(192, 57, 149);"/>
			<path class="st29" d="M1009.2,376.9c48.7,0,88.2,39.5,88.2,88.2s-39.5,88.2-88.2,88.2V376.9z" style="fill-rule: evenodd; clip-rule: evenodd; fill: rgb(177, 31, 131);"/>
			<path class="st10" d="M1008.8,416.4h0.4h0.3c42.1,0,76.2,39.9,76.2,48.7c0,8.8-34,48.7-76.2,48.7h-0.3h-0.4&#10;&#9;&#9;&#9;&#9;c-42.1,0-76.2-39.9-76.2-48.7C932.6,456.3,966.6,416.4,1008.8,416.4L1008.8,416.4z M1009.2,443.7c11.8,0,21.4,9.6,21.4,21.4&#10;&#9;&#9;&#9;&#9;s-9.6,21.4-21.4,21.4c-11.9,0-21.4-9.6-21.4-21.4S997.3,443.7,1009.2,443.7L1009.2,443.7z M1008.9,428.9l0.3,0.1l0.2-0.1&#10;&#9;&#9;&#9;&#9;c32.7,0,59.2,29.7,59.2,36.1s-26.5,36.1-59.2,36.1l-0.2-0.1l-0.3,0.1c-32.7,0-59.2-29.7-59.2-36.1S976.2,428.9,1008.9,428.9&#10;&#9;&#9;&#9;&#9;L1008.9,428.9z" style="fill-rule: evenodd; clip-rule: evenodd; fill: rgb(243, 184, 26);"/>
			<path class="st6" d="M1009.2,416.4h0.3c42.1,0,76.2,39.9,76.2,48.7c0,8.8-34,48.7-76.2,48.7h-0.3v-12.7l0.2,0.1&#10;&#9;&#9;&#9;&#9;c32.7,0,59.2-29.7,59.2-36.1s-26.5-36.1-59.2-36.1l-0.2,0.1V416.4z M1009.2,486.4v-42.7c11.8,0,21.4,9.6,21.4,21.4&#10;&#9;&#9;&#9;&#9;S1021,486.4,1009.2,486.4L1009.2,486.4z" style="fill-rule: evenodd; clip-rule: evenodd; fill: rgb(244, 139, 32);"/>
		</g><path class="st5" d="M950.8,602.8v-19.7h6.3c2.4,0,4,0.1,4.7,0.3c1.2,0.3,2.1,0.9,2.9,1.9c0.8,1,1.1,2.3,1.1,3.9&#10;&#9;&#9;&#9;c0,1.2-0.2,2.2-0.7,3c-0.4,0.9-1,1.4-1.7,2c-0.7,0.4-1.3,0.8-2,0.9c-1,0.2-2.3,0.3-4.1,0.3h-2.7v7.3H950.8z M954.7,586.4v5.6h2.2&#10;&#9;&#9;&#9;c1.6,0,2.6,0,3.1-0.2c0.6-0.2,1-0.6,1.2-1c0.3-0.4,0.4-1,0.4-1.6c0-0.7-0.1-1.2-0.6-1.8c-0.4-0.4-1-0.7-1.7-0.8&#10;&#9;&#9;&#9;c-0.4-0.1-1.3-0.2-2.8-0.2H954.7z M968.1,596.4l3.9-0.4c0.2,1.3,0.7,2.3,1.4,2.9c0.7,0.6,1.7,0.9,2.9,0.9c1.2,0,2.2-0.2,2.9-0.8&#10;&#9;&#9;&#9;c0.7-0.6,0.9-1.2,0.9-1.9c0-0.4-0.1-0.9-0.3-1.2c-0.3-0.3-0.8-0.6-1.4-0.9c-0.4-0.1-1.6-0.4-3.2-0.8c-2.1-0.6-3.6-1.2-4.4-2&#10;&#9;&#9;&#9;c-1.2-1-1.8-2.3-1.8-3.9c0-1,0.2-2,0.8-2.9c0.7-0.8,1.4-1.4,2.6-1.9c1-0.6,2.3-0.8,3.8-0.8c2.6,0,4.3,0.6,5.6,1.7&#10;&#9;&#9;&#9;c1.3,1.1,2,2.6,2,4.3l-4,0.2c-0.1-1.1-0.4-1.8-1-2.2c-0.6-0.4-1.4-0.7-2.6-0.7s-2.1,0.2-2.7,0.7c-0.4,0.3-0.7,0.8-0.7,1.2&#10;&#9;&#9;&#9;c0,0.4,0.2,0.9,0.6,1.2c0.6,0.4,1.8,0.9,3.7,1.3c1.9,0.4,3.3,0.9,4.3,1.4c0.9,0.4,1.6,1.1,2.1,2c0.6,0.8,0.8,1.9,0.8,3.1&#10;&#9;&#9;&#9;c0,1.1-0.3,2.1-0.9,3.1c-0.7,1-1.6,1.8-2.7,2.2c-1.1,0.4-2.6,0.7-4.3,0.7c-2.4,0-4.3-0.6-5.7-1.7&#10;&#9;&#9;&#9;C969.2,600.2,968.4,598.5,968.1,596.4L968.1,596.4z M992.7,602.8v-8.2l-7.2-11.5h4.7l4.6,7.8l4.6-7.8h4.6l-7.2,11.5v8.2H992.7z&#10;&#9;&#9;&#9; M1018.3,595.5l3.9,1.2c-0.7,2.1-1.7,3.8-3,4.8c-1.3,1-3.1,1.6-5.2,1.6c-2.6,0-4.8-0.9-6.5-2.7c-1.7-1.8-2.4-4.2-2.4-7.3&#10;&#9;&#9;&#9;c0-3.2,0.8-5.8,2.4-7.6c1.8-1.8,4-2.8,6.7-2.8c2.4,0,4.4,0.8,5.9,2.2c0.9,0.8,1.6,2,2,3.6l-3.9,1c-0.2-1.1-0.8-1.9-1.4-2.4&#10;&#9;&#9;&#9;c-0.8-0.6-1.7-0.9-2.7-0.9c-1.6,0-2.7,0.6-3.6,1.6c-0.9,1-1.4,2.8-1.4,5.1c0,2.4,0.4,4.2,1.3,5.2c1,1.1,2.1,1.7,3.6,1.7&#10;&#9;&#9;&#9;c1,0,1.9-0.3,2.7-1C1017.5,598.1,1018,597,1018.3,595.5L1018.3,595.5z M1025.6,602.8v-19.7h4v7.8h7.8v-7.8h4v19.7h-4v-8.6h-7.8&#10;&#9;&#9;&#9;v8.6H1025.6z M1045.3,602.8v-19.7h4v19.7H1045.3z M1065.6,595.5l3.9,1.2c-0.6,2.1-1.6,3.8-3,4.8c-1.3,1-3.1,1.6-5.2,1.6&#10;&#9;&#9;&#9;c-2.6,0-4.7-0.9-6.3-2.7c-1.8-1.8-2.6-4.2-2.6-7.3c0-3.2,0.9-5.8,2.6-7.6c1.7-1.8,3.9-2.8,6.7-2.8c2.3,0,4.3,0.8,5.8,2.2&#10;&#9;&#9;&#9;c0.9,0.8,1.6,2,2,3.6l-3.9,1c-0.2-1.1-0.7-1.9-1.4-2.4c-0.8-0.6-1.7-0.9-2.7-0.9c-1.4,0-2.7,0.6-3.6,1.6c-0.9,1-1.3,2.8-1.3,5.1&#10;&#9;&#9;&#9;c0,2.4,0.4,4.2,1.3,5.2c0.9,1.1,2,1.7,3.4,1.7c1.1,0,2-0.3,2.8-1C1064.7,598.1,1065.3,597,1065.6,595.5L1065.6,595.5z" style="fill: rgb(65, 64, 66);" transform="matrix(1, 0, 0, 1, -912.6315841674805, -372.1290283203125)"/>
</svg>