<?xml version="1.0" encoding="utf-8"?>
<svg id="master-artboard" viewBox="0 0 192.10513305664062 238.18177795410156" version="1.1" xmlns="http://www.w3.org/2000/svg" x="0px" y="0px" style="enable-background:new 0 0 1400 980;" width="192.10513305664062px" height="238.18177795410156px"><rect id="ee-background" x="0" y="0" width="192.10513305664062" height="238.18177795410156" style="fill: white; fill-opacity: 0; pointer-events: none;"/>

<g transform="matrix(1, 0, 0, 1, -915.07177734375, -86.62664794921875)">
			<path class="st19" d="M1009.2,91.4c48.7,0,88.2,39.5,88.2,88.2c0,48.8-39.5,88.3-88.2,88.3c-48.8,0-88.3-39.5-88.3-88.3&#10;&#9;&#9;&#9;&#9;C920.9,130.9,960.4,91.4,1009.2,91.4L1009.2,91.4z" style="fill-rule: evenodd; clip-rule: evenodd; fill: rgb(166, 159, 151);"/>
			<path class="st20" d="M1009.2,91.4c48.7,0,88.2,39.5,88.2,88.2c0,48.8-39.5,88.3-88.2,88.3V91.4z" style="fill-rule: evenodd; clip-rule: evenodd; fill: rgb(146, 127, 108);"/>
			<path class="st21" d="M958.8,224.4c-10.5-3-10.9-6-7.6-14c12.7-31,31.3-60.1,47.8-77.7c3.1-3.3,7.5-2.8,11,0&#10;&#9;&#9;&#9;&#9;c5.2,3.9,6.1,10.5,11,17c1.8,2.4,14.7,2,16.5,4.7c1.6,2.3,3.2,4.9,4.8,7.6c1.9,3.2,3.7,6.5,5.3,9.5c3.7,6.6,4.3,8.7,0.3,15.2&#10;&#9;&#9;&#9;&#9;l-21.4,35c-3.3,5.4-6.2,7.2-12.6,7.2C992.8,229.2,970.5,227.7,958.8,224.4L958.8,224.4z M1061.7,198.2c1.9,4,3.7,8.1,5.3,12.2&#10;&#9;&#9;&#9;&#9;c3.3,8,3,11-7.6,14c-4.3,1.2-10.1,2.2-16.8,2.9c-6,0.7-5.2-2.8-2.7-6.8l11.2-18.7C1056.5,193.4,1057.4,189,1061.7,198.2&#10;&#9;&#9;&#9;&#9;L1061.7,198.2z" style="fill-rule: evenodd; clip-rule: evenodd; fill: rgb(139, 126, 113);"/>
			<path class="st22" d="M1009.2,132c0.2,0.1,0.6,0.3,0.9,0.7c5.2,3.9,6.1,10.5,11,17c1.8,2.4,14.7,2,16.5,4.7&#10;&#9;&#9;&#9;&#9;c1.6,2.3,3.2,4.9,4.8,7.6c1.9,3.2,3.7,6.5,5.3,9.5c3.7,6.6,4.3,8.7,0.3,15.2l-21.4,35c-3.3,5.4-6.2,7.2-12.6,7.2&#10;&#9;&#9;&#9;&#9;c-1.7,0.1-3.3,0.1-4.9,0.1V132z M1034.4,127.9c4.6,0,10.6,4.8,10.6,9.1c0,4.2-5.9,9.6-10.5,9.6c-4.7,0-6.1-5.3-6.1-9.6&#10;&#9;&#9;&#9;&#9;C1028.3,132.7,1029.7,127.9,1034.4,127.9L1034.4,127.9z M1061.7,198.2c1.9,4,3.7,8.1,5.3,12.2c3.3,8,3,11-7.6,14&#10;&#9;&#9;&#9;&#9;c-4.3,1.2-10.1,2.2-16.8,2.9c-6,0.7-5.2-2.8-2.7-6.8l11.2-18.7C1056.5,193.4,1057.4,189,1061.7,198.2L1061.7,198.2z" style="fill-rule: evenodd; clip-rule: evenodd; fill: rgb(116, 92, 68);"/>
		</g><path class="st5" d="M971.4,317.4v-19.7h8.3c2.1,0,3.7,0.1,4.7,0.6c0.9,0.3,1.7,0.9,2.2,1.9c0.6,0.9,0.9,1.9,0.9,3&#10;&#9;&#9;&#9;c0,1.6-0.4,2.8-1.3,3.7c-0.9,1-2.1,1.6-3.9,1.9c0.9,0.4,1.6,1,2.1,1.6c0.6,0.7,1.3,1.7,2.3,3.2l2.3,3.9h-4.8l-2.8-4.3&#10;&#9;&#9;&#9;c-1.1-1.6-1.8-2.4-2.1-2.9c-0.4-0.3-0.8-0.7-1.2-0.8c-0.4-0.2-1.1-0.2-2-0.2h-0.8v8.2H971.4z M975.4,306.1h2.9&#10;&#9;&#9;&#9;c1.9,0,3.1-0.1,3.6-0.3c0.6-0.1,0.9-0.3,1.1-0.8c0.3-0.4,0.4-0.9,0.4-1.4c0-0.7-0.2-1.2-0.6-1.7c-0.3-0.3-0.8-0.7-1.4-0.8&#10;&#9;&#9;&#9;c-0.3,0-1.3,0-2.9,0h-3.1V306.1z M990.4,307.6c0-2,0.3-3.7,0.9-5c0.4-1,1.1-1.9,1.9-2.7c0.8-0.8,1.6-1.4,2.6-1.8&#10;&#9;&#9;&#9;c1.2-0.6,2.6-0.8,4.2-0.8c2.9,0,5.2,0.9,6.9,2.7c1.8,1.8,2.7,4.3,2.7,7.5c0,3.2-0.9,5.7-2.7,7.5c-1.7,1.9-4,2.8-6.9,2.8&#10;&#9;&#9;&#9;c-2.9,0-5.2-0.9-7-2.7C991.3,313.3,990.4,310.7,990.4,307.6L990.4,307.6z M994.5,307.5c0,2.2,0.6,3.9,1.6,5.1&#10;&#9;&#9;&#9;c1,1.1,2.3,1.7,3.9,1.7c1.6,0,2.9-0.6,3.9-1.7c1-1.2,1.6-2.9,1.6-5.1c0-2.3-0.6-4-1.6-5.1c-0.9-1.1-2.2-1.7-3.9-1.7s-3,0.6-4,1.7&#10;&#9;&#9;&#9;C995,303.6,994.5,305.3,994.5,307.5L994.5,307.5z M1025.2,310.2l3.8,1.2c-0.6,2.1-1.6,3.7-2.9,4.8c-1.4,1-3.1,1.6-5.2,1.6&#10;&#9;&#9;&#9;c-2.7,0-4.8-0.9-6.5-2.7c-1.7-1.8-2.6-4.2-2.6-7.3c0-3.3,0.9-5.8,2.6-7.7c1.7-1.8,3.9-2.7,6.7-2.7c2.4,0,4.3,0.7,5.9,2.1&#10;&#9;&#9;&#9;c0.9,0.9,1.6,2,2,3.7l-4,0.9c-0.2-1-0.7-1.8-1.4-2.4c-0.7-0.6-1.6-0.9-2.7-0.9c-1.4,0-2.7,0.6-3.6,1.6c-0.9,1.1-1.3,2.8-1.3,5.1&#10;&#9;&#9;&#9;c0,2.4,0.4,4.2,1.3,5.3c0.9,1,2.1,1.6,3.4,1.6c1.1,0,2-0.3,2.8-1C1024.3,312.6,1024.9,311.6,1025.2,310.2L1025.2,310.2z&#10;&#9;&#9;&#9; M1032.5,317.4v-19.7h4v8.7l8-8.7h5.3l-7.3,7.7l7.8,12h-5.1l-5.4-9.2l-3.2,3.2v6H1032.5z" style="fill: rgb(65, 64, 66);" transform="matrix(1, 0, 0, 1, -915.07177734375, -86.62664794921875)"/>
</svg>