<?xml version="1.0" encoding="utf-8"?>
<svg id="master-artboard" viewBox="0 0 192.10513305664062 238.18177795410156" version="1.1" xmlns="http://www.w3.org/2000/svg" x="0px" y="0px" style="enable-background:new 0 0 1400 980;" width="192.10513305664062px" height="238.18177795410156px"><rect id="ee-background" x="0" y="0" width="192.10513305664062" height="238.18177795410156" style="fill: white; fill-opacity: 0; pointer-events: none;"/>

<g transform="matrix(1, 0, 0, 1, -1128.5885467529297, -87.8466796875)">
			<path class="st23" d="M1227.2,91.4c48.7,0,88.3,39.5,88.3,88.2c0,48.8-39.6,88.3-88.3,88.3s-88.2-39.5-88.2-88.3&#10;&#9;&#9;&#9;&#9;C1139,130.9,1178.5,91.4,1227.2,91.4L1227.2,91.4z" style="fill-rule: evenodd; clip-rule: evenodd; fill: rgb(83, 62, 40);"/>
			<path class="st24" d="M1227.2,91.4c48.7,0,88.3,39.5,88.3,88.2c0,48.8-39.6,88.3-88.3,88.3V91.4z" style="fill-rule: evenodd; clip-rule: evenodd; fill: rgb(53, 36, 20);"/>
			<path class="st21" d="M1229.2,223.2l36.1-62.9c0.9-1.7-0.2-3.4-2-3.4l-72.5,0.2c-2.2,0-3.1,1.6-2,3.4l36.5,62.7&#10;&#9;&#9;&#9;&#9;C1226.4,225.2,1228,225.2,1229.2,223.2L1229.2,223.2z M1214.5,250.1l-16.7-9.6c-1.8-1.1-2.7-2.4-2.7-4.6v-8.9&#10;&#9;&#9;&#9;&#9;c0-3.3,1.6-3.8,4.1-2.2l22.5,12.9c3,2,7.6,2,10.6,0l22.4-12.9c2.7-1.6,4.2-1.1,4.2,2.2v8.9c0,2.1-0.9,3.4-2.7,4.6l-16.8,9.6&#10;&#9;&#9;&#9;&#9;C1231.2,255,1222.9,255,1214.5,250.1L1214.5,250.1z M1294.1,156v19.4c0,2-0.8,3.6-2.6,4.6l-7.8,4.4c-2.9,1.7-4,0.6-4-2.4V156&#10;&#9;&#9;&#9;&#9;c0.2-3.7-2.1-7.6-5.3-9.1l-22.4-13c-2.7-1.4-3.1-3-0.2-4.7l7.8-4.6c1.8-1,3.4-0.9,5.2,0.1l16.8,9.7&#10;&#9;&#9;&#9;&#9;C1289.9,139.2,1294.1,146.5,1294.1,156L1294.1,156z M1172.8,134.2l16.7-9.7c1.8-1,3.6-1.1,5.2-0.1l7.8,4.4&#10;&#9;&#9;&#9;&#9;c2.9,1.7,2.4,3.3-0.1,4.8l-22.5,12.9c-3.2,1.7-5.4,5.7-5.2,9.2v25.8c0,3-1.2,4.2-4,2.6l-7.8-4.4c-1.8-1-2.6-2.6-2.6-4.7v-19.2&#10;&#9;&#9;&#9;&#9;C1160.4,146.2,1164.5,139,1172.8,134.2L1172.8,134.2z" style="fill-rule: evenodd; clip-rule: evenodd; fill: rgb(139, 126, 113);"/>
			<path class="st22" d="M1229.2,223.2l36.1-62.9c0.9-1.7-0.2-3.4-2-3.4l-36.1,0.1v67.8C1227.9,224.8,1228.6,224.2,1229.2,223.2&#10;&#9;&#9;&#9;&#9;L1229.2,223.2z M1227.2,239.2v14.6c4.1-0.1,8.2-1.2,12.2-3.7l16.8-9.6c1.8-1.1,2.7-2.4,2.7-4.6v-8.9c0-3.3-1.6-3.8-4.2-2.2&#10;&#9;&#9;&#9;&#9;l-22.4,12.9C1230.9,238.7,1229.1,239.2,1227.2,239.2L1227.2,239.2z M1294.1,156v19.4c0,2-0.8,3.6-2.6,4.6l-7.8,4.4&#10;&#9;&#9;&#9;&#9;c-2.9,1.7-4,0.6-4-2.4V156c0.2-3.7-2.1-7.6-5.3-9.1l-22.4-13c-2.7-1.4-3.1-3-0.2-4.7l7.8-4.6c1.8-1,3.4-0.9,5.2,0.1l16.8,9.7&#10;&#9;&#9;&#9;&#9;C1289.9,139.2,1294.1,146.5,1294.1,156L1294.1,156z" style="fill-rule: evenodd; clip-rule: evenodd; fill: rgb(116, 92, 68);"/>
		</g><path class="st5" d="M1184.6,311l3.9-0.3c0.2,1.2,0.7,2.2,1.4,2.8c0.7,0.7,1.7,1,2.9,1c1.2,0,2.2-0.3,2.9-0.9&#10;&#9;&#9;&#9;c0.7-0.6,0.9-1.1,0.9-1.9c0-0.4-0.1-0.8-0.3-1.1c-0.3-0.3-0.8-0.7-1.4-0.9c-0.4-0.2-1.6-0.4-3.2-0.9c-2.1-0.6-3.6-1.1-4.4-1.9&#10;&#9;&#9;&#9;c-1.2-1.1-1.8-2.4-1.8-4c0-1,0.2-1.9,0.8-2.8c0.7-0.9,1.4-1.6,2.6-2c1-0.4,2.3-0.7,3.8-0.7c2.6,0,4.3,0.6,5.6,1.6&#10;&#9;&#9;&#9;c1.3,1.1,2,2.6,2,4.3l-4,0.2c-0.1-1-0.4-1.8-1-2.2c-0.6-0.4-1.4-0.7-2.6-0.7c-1.1,0-2.1,0.3-2.7,0.8c-0.4,0.2-0.7,0.7-0.7,1.2&#10;&#9;&#9;&#9;c0,0.4,0.2,0.9,0.6,1.1c0.6,0.4,1.8,0.9,3.7,1.3c1.9,0.4,3.3,1,4.3,1.4c0.9,0.4,1.6,1.1,2.1,2s0.8,1.9,0.8,3.1&#10;&#9;&#9;&#9;c0,1.1-0.3,2.2-0.9,3.2c-0.7,0.9-1.6,1.7-2.7,2.1c-1.1,0.6-2.6,0.8-4.3,0.8c-2.4,0-4.3-0.6-5.7-1.8&#10;&#9;&#9;&#9;C1185.7,314.8,1184.9,313.2,1184.6,311L1184.6,311z M1208.4,317.4v-16.3h-5.8v-3.3h15.6v3.3h-5.8v16.3H1208.4z M1220.7,317.4&#10;&#9;&#9;&#9;v-19.7h14.6v3.3h-10.6v4.3h9.8v3.3h-9.8v5.3h10.9v3.3H1220.7z M1239.1,317.4v-19.7h14.6v3.3H1243v4.3h9.9v3.3h-9.9v5.3h11v3.3&#10;&#9;&#9;&#9;H1239.1z M1257.4,317.4v-19.6h4v16.2h9.9v3.3H1257.4z" style="fill: rgb(65, 64, 66);" transform="matrix(1, 0, 0, 1, -1128.5885467529297, -87.8466796875)"/>
</svg>