<?xml version="1.0" encoding="utf-8"?>
<svg id="master-artboard" viewBox="0 0 221.38743591308594 280.8851318359375" version="1.1" xmlns="http://www.w3.org/2000/svg" x="0px" y="0px" style="enable-background:new 0 0 1400 980;" width="221.38743591308594px" height="280.8851318359375px"><rect id="ee-background" x="0" y="0" width="221.38743591308594" height="280.8851318359375" style="fill: white; fill-opacity: 0; pointer-events: none;"/>

<g transform="matrix(1.0836564302444458, 0, 0, 1.0836564302444458, -74.17422485351562, -79.32842826843262)">
		<g>
			<path class="st0" d="M172.7,91.4c48.8,0,88.3,39.5,88.3,88.2c0,48.8-39.5,88.3-88.3,88.3c-48.7,0-88.2-39.5-88.2-88.3&#10;&#9;&#9;&#9;&#9;C84.5,130.9,124,91.4,172.7,91.4L172.7,91.4z" style="fill-rule: evenodd; clip-rule: evenodd; fill: rgb(31, 175, 223);"/>
			<path class="st1" d="M172.7,91.4c48.8,0,88.3,39.5,88.3,88.2c0,48.8-39.5,88.3-88.3,88.3V91.4z" style="fill-rule: evenodd; clip-rule: evenodd; fill: rgb(10, 135, 179);"/>
			<path class="st2" d="M209.2,123.9c-16.6,2.1-33.8,9.2-47.9,19.4c-49,35.1-32.7,92.3,17,86.4c21-2.4,32.7-19,32.3-35.5&#10;&#9;&#9;&#9;&#9;c-0.2-8.7-3.7-15.2-11-24.1c-13.2-15.8-5-33.5,11.5-42.6C215.7,124.8,214.2,123.2,209.2,123.9L209.2,123.9z" style="fill-rule: evenodd; clip-rule: evenodd; fill: rgb(201, 235, 249);"/>
			<path class="st3" d="M209.2,123.9c-12.2,1.6-24.9,5.9-36.5,12.1v94.1c1.9,0,3.7-0.2,5.6-0.4c21-2.4,32.7-19,32.3-35.5&#10;&#9;&#9;&#9;&#9;c-0.2-8.7-3.7-15.2-11-24.1c-13.2-15.8-5-33.5,11.5-42.6C215.7,124.8,214.2,123.2,209.2,123.9L209.2,123.9z" style="fill-rule: evenodd; clip-rule: evenodd; fill: rgb(101, 205, 246);"/>
			<path class="st4" d="M189.2,169.3c3.2,0,5.8,3.2,5.8,7.2c0,4.1-2.6,7.3-5.8,7.3s-5.8-3.2-5.8-7.3&#10;&#9;&#9;&#9;&#9;C183.4,172.5,185.9,169.3,189.2,169.3L189.2,169.3z" style="fill-rule: evenodd; clip-rule: evenodd; fill: rgb(255, 255, 255);"/>
			<path class="st4" d="M196.8,184.4c1.2,0,2.2,1.2,2.2,2.8c0,1.4-1,2.7-2.2,2.7c-1.2,0-2.1-1.2-2.1-2.7&#10;&#9;&#9;&#9;&#9;C194.7,185.6,195.6,184.4,196.8,184.4L196.8,184.4z" style="fill-rule: evenodd; clip-rule: evenodd; fill: rgb(255, 255, 255);"/>
		</g>
		<path class="st5" d="M129,317.4l-4.7-19.7h4.1l2.9,13.5l3.7-13.5h4.7l3.4,13.7l3-13.7h4l-4.8,19.7h-4.2l-3.9-14.8l-3.9,14.8H129z&#10;&#9;&#9;&#9; M168.4,317.4H164l-1.7-4.6h-7.9l-1.6,4.6h-4.2l7.7-19.7h4.1L168.4,317.4z M161.1,309.6l-2.8-7.3l-2.7,7.3H161.1z M172.9,317.4&#10;&#9;&#9;&#9;v-16.3H167v-3.3h15.7v3.3h-5.9v16.3H172.9z M185.3,317.4v-19.7h14.6v3.3h-10.7v4.3h9.9v3.3h-9.9v5.3h11v3.3H185.3z M203.6,317.4&#10;&#9;&#9;&#9;v-19.7h8.3c2.1,0,3.6,0.1,4.6,0.6c0.9,0.3,1.7,0.9,2.2,1.9c0.7,0.9,0.9,1.9,0.9,3c0,1.6-0.4,2.8-1.3,3.7c-0.8,1-2.1,1.6-3.9,1.9&#10;&#9;&#9;&#9;c0.9,0.4,1.7,1,2.2,1.6c0.6,0.7,1.2,1.7,2.2,3.2l2.3,3.9h-4.7l-2.9-4.3c-1-1.6-1.7-2.4-2.1-2.9c-0.3-0.3-0.8-0.7-1.2-0.8&#10;&#9;&#9;&#9;c-0.3-0.2-1-0.2-2-0.2h-0.8v8.2H203.6z M207.5,306.1h3c1.9,0,3-0.1,3.6-0.3c0.4-0.1,0.8-0.3,1.1-0.8c0.2-0.4,0.3-0.9,0.3-1.4&#10;&#9;&#9;&#9;c0-0.7-0.1-1.2-0.4-1.7c-0.4-0.3-0.9-0.7-1.6-0.8c-0.3,0-1.2,0-2.9,0h-3.1V306.1z" style="fill: rgb(65, 64, 66);"/>
	</g>
</svg>